<svg width="64" height="64" viewBox="0 0 64 64" fill="none" xmlns="http://www.w3.org/2000/svg">
<path d="M24.0002 58.6666C25.4729 58.6666 26.6668 57.4727 26.6668 55.9999C26.6668 54.5272 25.4729 53.3333 24.0002 53.3333C22.5274 53.3333 21.3335 54.5272 21.3335 55.9999C21.3335 57.4727 22.5274 58.6666 24.0002 58.6666Z" stroke="#333333" stroke-width="5" stroke-linecap="round" stroke-linejoin="round"/>
<path d="M53.3332 58.6666C54.8059 58.6666 55.9998 57.4727 55.9998 55.9999C55.9998 54.5272 54.8059 53.3333 53.3332 53.3333C51.8604 53.3333 50.6665 54.5272 50.6665 55.9999C50.6665 57.4727 51.8604 58.6666 53.3332 58.6666Z" stroke="#333333" stroke-width="5" stroke-linecap="round" stroke-linejoin="round"/>
<path d="M2.66675 2.66675H13.3334L20.4801 38.3734C20.7239 39.6011 21.3918 40.704 22.3669 41.4889C23.3419 42.2738 24.5619 42.6907 25.8134 42.6667H51.7334C52.9849 42.6907 54.2049 42.2738 55.18 41.4889C56.155 40.704 56.8229 39.6011 57.0667 38.3734L61.3334 16.0001H16.0001" stroke="#333333" stroke-width="5" stroke-linecap="round" stroke-linejoin="round"/>
</svg>
