<svg width="64" height="64" viewBox="0 0 64 64" fill="none" xmlns="http://www.w3.org/2000/svg">
<path d="M53.3335 18.6667H10.6668C7.72131 18.6667 5.3335 21.0546 5.3335 24.0001V50.6667C5.3335 53.6123 7.72131 56.0001 10.6668 56.0001H53.3335C56.279 56.0001 58.6668 53.6123 58.6668 50.6667V24.0001C58.6668 21.0546 56.279 18.6667 53.3335 18.6667Z" stroke="#333333" stroke-width="5" stroke-linecap="round" stroke-linejoin="round"/>
<path d="M42.6668 56V13.3333C42.6668 11.9188 42.1049 10.5623 41.1047 9.5621C40.1045 8.5619 38.748 8 37.3335 8H26.6668C25.2523 8 23.8958 8.5619 22.8956 9.5621C21.8954 10.5623 21.3335 11.9188 21.3335 13.3333V56" stroke="#333333" stroke-width="5" stroke-linecap="round" stroke-linejoin="round"/>
</svg>
