<svg width="64" height="64" viewBox="0 0 64 64" fill="none" xmlns="http://www.w3.org/2000/svg">
<path d="M16 5.33325L8 15.9999V53.3332C8 54.7477 8.5619 56.1043 9.5621 57.1045C10.5623 58.1047 11.9188 58.6666 13.3333 58.6666H50.6667C52.0812 58.6666 53.4377 58.1047 54.4379 57.1045C55.4381 56.1043 56 54.7477 56 53.3332V15.9999L48 5.33325H16Z" stroke="#333333" stroke-width="5" stroke-linecap="round" stroke-linejoin="round"/>
<path d="M8 16H56" stroke="#333333" stroke-width="5" stroke-linecap="round" stroke-linejoin="round"/>
<path d="M42.6668 26.6667C42.6668 29.4957 41.543 32.2088 39.5426 34.2092C37.5422 36.2096 34.8291 37.3334 32.0002 37.3334C29.1712 37.3334 26.4581 36.2096 24.4577 34.2092C22.4573 32.2088 21.3335 29.4957 21.3335 26.6667" stroke="#333333" stroke-width="5" stroke-linecap="round" stroke-linejoin="round"/>
</svg>
