<svg width="359" height="371" viewBox="0 0 359 371" fill="none" xmlns="http://www.w3.org/2000/svg">
<g filter="url(#filter0_b_110_505)">
<rect width="359" height="371" rx="114" fill="url(#paint0_linear_110_505)"/>
<rect x="0.5" y="0.5" width="358" height="370" rx="113.5" stroke="url(#paint1_linear_110_505)"/>
</g>
<path d="M231.563 204.714C221.953 204.714 213.955 210.577 210.088 219L184.365 219C187.559 213.404 189.375 206.887 189.375 199.952L189.375 171.381C189.375 160.875 197.783 152.333 208.125 152.333L210.088 152.333C213.955 160.756 221.953 166.619 231.563 166.619C244.506 166.619 255 155.964 255 142.809C255 129.654 244.506 119 231.563 119C221.953 119 213.955 124.863 210.088 133.285L208.125 133.285C187.412 133.285 170.625 150.339 170.625 171.381L170.625 199.952C170.625 210.458 162.217 219 151.875 219L149.912 219C146.309 210.577 138.047 204.714 128.438 204.714C115.488 204.714 105 215.369 105 228.523C105 241.672 115.488 252.333 128.438 252.333C138.047 252.333 146.309 246.455 149.912 238.047L210.088 238.047C213.955 246.455 221.953 252.333 231.562 252.333C244.506 252.333 255 241.672 255 228.523C255 215.369 244.506 204.714 231.563 204.714ZM224.531 228.523C224.531 224.58 227.681 221.381 231.563 221.381C235.444 221.381 238.594 224.58 238.594 228.523C238.594 232.467 235.444 235.666 231.563 235.666C227.681 235.666 224.531 232.467 224.531 228.523ZM238.594 142.809C238.594 146.768 235.444 149.952 231.563 149.952C227.681 149.952 224.531 146.768 224.531 142.809C224.531 138.851 227.681 135.666 231.563 135.666C235.444 135.666 238.594 138.851 238.594 142.809ZM121.406 228.523C121.406 224.58 124.541 221.381 128.438 221.381C132.334 221.381 135.469 224.58 135.469 228.523C135.469 232.467 132.334 235.666 128.438 235.666C124.541 235.666 121.406 232.467 121.406 228.523Z" fill="white"/>
<defs>
<filter id="filter0_b_110_505" x="-18" y="-18" width="395" height="407" filterUnits="userSpaceOnUse" color-interpolation-filters="sRGB">
<feFlood flood-opacity="0" result="BackgroundImageFix"/>
<feGaussianBlur in="BackgroundImage" stdDeviation="9"/>
<feComposite in2="SourceAlpha" operator="in" result="effect1_backgroundBlur_110_505"/>
<feBlend mode="normal" in="SourceGraphic" in2="effect1_backgroundBlur_110_505" result="shape"/>
</filter>
<linearGradient id="paint0_linear_110_505" x1="179.5" y1="0" x2="179.5" y2="371" gradientUnits="userSpaceOnUse">
<stop stop-color="#B6F214"/>
<stop offset="0.770833" stop-color="#B6F214" stop-opacity="0.15"/>
<stop offset="1" stop-color="#C4C4C4" stop-opacity="0"/>
</linearGradient>
<linearGradient id="paint1_linear_110_505" x1="179.5" y1="0" x2="179.5" y2="371" gradientUnits="userSpaceOnUse">
<stop stop-color="white"/>
<stop offset="1" stop-color="#B6F214"/>
</linearGradient>
</defs>
</svg>
