<svg width="359" height="371" viewBox="0 0 359 371" fill="none" xmlns="http://www.w3.org/2000/svg">
<g filter="url(#filter0_b_110_529)">
<rect width="359" height="371" rx="114" fill="url(#paint0_linear_110_529)"/>
<rect x="0.5" y="0.5" width="358" height="370" rx="113.5" stroke="url(#paint1_linear_110_529)"/>
</g>
<path d="M179.083 202.167C183.084 202.167 186.92 200.578 189.749 197.749C192.578 194.92 194.167 191.084 194.167 187.083C194.167 183.083 192.578 179.246 189.749 176.418C186.92 173.589 183.084 172 179.083 172C175.083 172 171.246 173.589 168.418 176.418C165.589 179.246 164 183.083 164 187.083C164 191.084 165.589 194.92 168.418 197.749C171.246 200.578 175.083 202.167 179.083 202.167V202.167Z" stroke="white" stroke-width="20.3" stroke-linejoin="round"/>
<path d="M180 234C192.2 234 203.9 229.154 212.527 220.527C221.154 211.9 226 200.2 226 188C226 175.8 221.154 164.1 212.527 155.473C203.9 146.846 192.2 142 180 142C167.8 142 156.1 146.846 147.473 155.473C138.846 164.1 134 175.8 134 188C134 200.2 138.846 211.9 147.473 220.527C156.1 229.154 167.8 234 180 234V234Z" stroke="white" stroke-width="20.3" stroke-linejoin="round"/>
<path d="M180 262C200.156 262 219.487 253.993 233.74 239.74C247.993 225.487 256 206.156 256 186C256 165.844 247.993 146.513 233.74 132.26C219.487 118.007 200.156 110 180 110C159.844 110 140.513 118.007 126.26 132.26C112.007 146.513 104 165.844 104 186C104 206.156 112.007 225.487 126.26 239.74C140.513 253.993 159.844 262 180 262V262Z" stroke="white" stroke-width="20.3" stroke-linejoin="round"/>
<defs>
<filter id="filter0_b_110_529" x="-18" y="-18" width="395" height="407" filterUnits="userSpaceOnUse" color-interpolation-filters="sRGB">
<feFlood flood-opacity="0" result="BackgroundImageFix"/>
<feGaussianBlur in="BackgroundImage" stdDeviation="9"/>
<feComposite in2="SourceAlpha" operator="in" result="effect1_backgroundBlur_110_529"/>
<feBlend mode="normal" in="SourceGraphic" in2="effect1_backgroundBlur_110_529" result="shape"/>
</filter>
<linearGradient id="paint0_linear_110_529" x1="179.5" y1="0" x2="179.5" y2="371" gradientUnits="userSpaceOnUse">
<stop stop-color="#B6F214"/>
<stop offset="0.770833" stop-color="#B6F214" stop-opacity="0.15"/>
<stop offset="1" stop-color="#C4C4C4" stop-opacity="0"/>
</linearGradient>
<linearGradient id="paint1_linear_110_529" x1="179.5" y1="0" x2="179.5" y2="371" gradientUnits="userSpaceOnUse">
<stop stop-color="white"/>
<stop offset="1" stop-color="#B6F214"/>
</linearGradient>
</defs>
</svg>
