<svg width="359" height="371" viewBox="0 0 359 371" fill="none" xmlns="http://www.w3.org/2000/svg">
<g filter="url(#filter0_b_110_521)">
<rect width="359" height="371" rx="114" fill="url(#paint0_linear_110_521)"/>
<rect x="0.5" y="0.5" width="358" height="370" rx="113.5" stroke="url(#paint1_linear_110_521)"/>
</g>
<path d="M144.154 235.615C144.154 226.154 138.471 218.279 130.308 214.471V203.308C130.308 198.202 134.433 194.077 139.538 194.077H171.99V216.721H189.154V194.077H220.308C225.413 194.077 229.538 198.202 229.538 203.308V214.471C221.375 218.279 215.692 226.154 215.692 235.615C215.692 248.36 226.019 258.692 238.769 258.692C251.519 258.692 261.846 248.36 261.846 235.615C261.846 226.154 256.163 218.279 248 214.471V203.308C248 188.019 235.596 175.615 220.308 175.615H189.154V155.221C197.317 151.673 203 143.538 203 134.077C203 121.327 192.673 111 179.923 111C167.173 111 156.846 121.327 156.846 134.077C156.846 143.538 162.529 151.673 170.692 155.221V175.615H139.538C124.244 175.615 111.846 188.019 111.846 203.308L111.846 214.471C103.697 218.279 98 226.154 98 235.615C98 248.36 108.333 258.692 121.077 258.692C133.827 258.692 144.154 248.36 144.154 235.615ZM121.077 228.692C124.899 228.692 128 231.793 128 235.615C128 239.438 124.899 242.538 121.077 242.538C117.255 242.538 114.154 239.438 114.154 235.615C114.154 231.793 117.255 228.692 121.077 228.692ZM238.769 228.692C242.606 228.692 245.692 231.793 245.692 235.615C245.692 239.438 242.606 242.538 238.769 242.538C234.933 242.538 231.846 239.438 231.846 235.615C231.846 231.793 234.933 228.692 238.769 228.692ZM179.923 141C176.087 141 173 137.913 173 134.077C173 130.24 176.087 127.154 179.923 127.154C183.76 127.154 186.846 130.24 186.846 134.077C186.846 137.913 183.76 141 179.923 141Z" fill="white"/>
<path d="M204.154 237.635C204.154 224.73 193.37 214.269 180.067 214.269C166.765 214.269 155.981 224.73 155.981 237.635C155.981 250.539 166.765 261 180.067 261C193.37 261 204.154 250.539 204.154 237.635ZM172.922 237.635C172.922 233.806 176.121 230.703 180.067 230.703C184.014 230.703 187.213 233.806 187.213 237.635C187.213 241.463 184.014 244.566 180.067 244.566C176.121 244.566 172.922 241.463 172.922 237.635Z" fill="white"/>
<defs>
<filter id="filter0_b_110_521" x="-18" y="-18" width="395" height="407" filterUnits="userSpaceOnUse" color-interpolation-filters="sRGB">
<feFlood flood-opacity="0" result="BackgroundImageFix"/>
<feGaussianBlur in="BackgroundImage" stdDeviation="9"/>
<feComposite in2="SourceAlpha" operator="in" result="effect1_backgroundBlur_110_521"/>
<feBlend mode="normal" in="SourceGraphic" in2="effect1_backgroundBlur_110_521" result="shape"/>
</filter>
<linearGradient id="paint0_linear_110_521" x1="179.5" y1="0" x2="179.5" y2="371" gradientUnits="userSpaceOnUse">
<stop stop-color="#B6F214"/>
<stop offset="0.770833" stop-color="#B6F214" stop-opacity="0.15"/>
<stop offset="1" stop-color="#C4C4C4" stop-opacity="0"/>
</linearGradient>
<linearGradient id="paint1_linear_110_521" x1="179.5" y1="0" x2="179.5" y2="371" gradientUnits="userSpaceOnUse">
<stop stop-color="white"/>
<stop offset="1" stop-color="#B6F214"/>
</linearGradient>
</defs>
</svg>
