<svg width="359" height="371" viewBox="0 0 359 371" fill="none" xmlns="http://www.w3.org/2000/svg">
<g filter="url(#filter0_b_110_502)">
<rect width="359" height="371" rx="114" fill="url(#paint0_linear_110_502)"/>
<rect x="0.5" y="0.5" width="358" height="370" rx="113.5" stroke="url(#paint1_linear_110_502)"/>
</g>
<path d="M197.489 204.94L211.464 190.966L225.438 204.94" stroke="white" stroke-width="15" stroke-linecap="round" stroke-linejoin="round"/>
<path d="M136.001 246.864L200.284 246.864C203.249 246.864 206.092 245.686 208.189 243.589C210.285 241.493 211.463 238.649 211.463 235.684L211.463 190.966" stroke="white" stroke-width="15" stroke-linecap="round" stroke-linejoin="round"/>
<path d="M91.9003 162.801C96.913 162.801 101.72 160.809 105.265 157.265C108.809 153.72 110.801 148.913 110.801 143.9C110.801 138.888 108.809 134.08 105.265 130.536C101.72 126.991 96.913 125 91.9003 125C86.8876 125 82.0803 126.991 78.5358 130.536C74.9913 134.08 73 138.888 73 143.9C73 148.913 74.9913 153.72 78.5358 157.265C82.0803 160.809 86.8876 162.801 91.9003 162.801V162.801Z" stroke="white" stroke-width="15" stroke-linejoin="round"/>
<path d="M151.195 162.801C156.208 162.801 161.015 160.809 164.56 157.265C168.104 153.72 170.096 148.913 170.096 143.9C170.096 138.888 168.104 134.08 164.56 130.536C161.015 126.991 156.208 125 151.195 125C146.183 125 141.375 126.991 137.831 130.536C134.286 134.08 132.295 138.888 132.295 143.9C132.295 148.913 134.286 153.72 137.831 157.265C141.375 160.809 146.183 162.801 151.195 162.801V162.801Z" stroke="white" stroke-width="15" stroke-linejoin="round"/>
<path d="M210.491 162.801C215.503 162.801 220.311 160.809 223.855 157.265C227.4 153.72 229.391 148.913 229.391 143.9C229.391 138.888 227.4 134.08 223.855 130.536C220.311 126.991 215.503 125 210.491 125C205.478 125 200.671 126.991 197.126 130.536C193.582 134.08 191.59 138.888 191.59 143.9C191.59 148.913 193.582 153.72 197.126 157.265C200.671 160.809 205.478 162.801 210.491 162.801V162.801Z" stroke="white" stroke-width="15" stroke-linejoin="round"/>
<path d="M269.044 162.801C274.057 162.801 278.864 160.809 282.409 157.265C285.953 153.72 287.945 148.913 287.945 143.9C287.945 138.888 285.953 134.08 282.409 130.536C278.864 126.991 274.057 125 269.044 125C264.032 125 259.224 126.991 255.68 130.536C252.135 134.08 250.144 138.888 250.144 143.9C250.144 148.913 252.135 153.72 255.68 157.265C259.224 160.809 264.032 162.801 269.044 162.801V162.801Z" stroke="white" stroke-width="15" stroke-linejoin="round"/>
<defs>
<filter id="filter0_b_110_502" x="-18" y="-18" width="395" height="407" filterUnits="userSpaceOnUse" color-interpolation-filters="sRGB">
<feFlood flood-opacity="0" result="BackgroundImageFix"/>
<feGaussianBlur in="BackgroundImage" stdDeviation="9"/>
<feComposite in2="SourceAlpha" operator="in" result="effect1_backgroundBlur_110_502"/>
<feBlend mode="normal" in="SourceGraphic" in2="effect1_backgroundBlur_110_502" result="shape"/>
</filter>
<linearGradient id="paint0_linear_110_502" x1="179.5" y1="0" x2="179.5" y2="371" gradientUnits="userSpaceOnUse">
<stop stop-color="#B6F214"/>
<stop offset="0.770833" stop-color="#B6F214" stop-opacity="0.15"/>
<stop offset="1" stop-color="#C4C4C4" stop-opacity="0"/>
</linearGradient>
<linearGradient id="paint1_linear_110_502" x1="179.5" y1="0" x2="179.5" y2="371" gradientUnits="userSpaceOnUse">
<stop stop-color="white"/>
<stop offset="1" stop-color="#B6F214"/>
</linearGradient>
</defs>
</svg>
