<svg width="21" height="21" viewBox="0 0 21 21" fill="none" xmlns="http://www.w3.org/2000/svg">
<path fill-rule="evenodd" clip-rule="evenodd" d="M6.88804 14.7398C9.79441 14.3152 11.7955 14.3517 14.7057 14.7546C14.9165 14.7852 15.1091 14.891 15.2479 15.0525C15.3867 15.2139 15.4625 15.4202 15.4611 15.6331C15.4611 15.8369 15.391 16.0348 15.2645 16.1894C15.044 16.4588 14.818 16.7238 14.5868 16.9842H15.7082C15.7787 16.9001 15.8496 16.8144 15.9213 16.7273C16.1732 16.4185 16.3106 16.0321 16.3103 15.6336C16.3103 14.7738 15.6827 14.0328 14.8221 13.9139C11.8431 13.5017 9.76086 13.4622 6.76533 13.8999C5.89576 14.0269 5.27075 14.7793 5.27075 15.645C5.27075 16.0293 5.39601 16.4093 5.63336 16.7171C5.70342 16.808 5.77263 16.8972 5.84141 16.9846H6.9356C6.7205 16.7271 6.51071 16.4652 6.30634 16.1991C6.18489 16.0398 6.11938 15.8449 6.11995 15.6446C6.11995 15.1873 6.44858 14.8039 6.88804 14.7398ZM10.7905 10.6153C11.1251 10.6153 11.4563 10.5494 11.7654 10.4213C12.0745 10.2933 12.3554 10.1056 12.5919 9.86908C12.8285 9.63252 13.0161 9.35168 13.1442 9.04259C13.2722 8.7335 13.3381 8.40223 13.3381 8.06767C13.3381 7.73312 13.2722 7.40184 13.1442 7.09276C13.0161 6.78367 12.8285 6.50283 12.5919 6.26626C12.3554 6.0297 12.0745 5.84204 11.7654 5.71402C11.4563 5.58599 11.1251 5.52009 10.7905 5.52009C10.1149 5.52009 9.46686 5.7885 8.9891 6.26626C8.51133 6.74402 8.24293 7.39201 8.24293 8.06767C8.24293 8.74333 8.51133 9.39132 8.9891 9.86908C9.46686 10.3468 10.1149 10.6153 10.7905 10.6153ZM10.7905 11.4644C11.6914 11.4644 12.5554 11.1066 13.1924 10.4696C13.8294 9.83254 14.1873 8.96855 14.1873 8.06767C14.1873 7.16679 13.8294 6.30281 13.1924 5.66579C12.5554 5.02877 11.6914 4.6709 10.7905 4.6709C9.88963 4.6709 9.02565 5.02877 8.38863 5.66579C7.75161 6.30281 7.39374 7.16679 7.39374 8.06767C7.39374 8.96855 7.75161 9.83254 8.38863 10.4696C9.02565 11.1066 9.88963 11.4644 10.7905 11.4644Z" fill="#A0A0A0"/>
<path fill-rule="evenodd" clip-rule="evenodd" d="M10.7905 17.8329C15.0114 17.8329 18.4333 14.4111 18.4333 10.1902C18.4333 5.96926 15.0114 2.54744 10.7905 2.54744C6.5696 2.54744 3.14778 5.96926 3.14778 10.1902C3.14778 14.4111 6.5696 17.8329 10.7905 17.8329ZM10.7905 18.6821C15.4806 18.6821 19.2825 14.8803 19.2825 10.1902C19.2825 5.50008 15.4806 1.69824 10.7905 1.69824C6.10042 1.69824 2.29858 5.50008 2.29858 10.1902C2.29858 14.8803 6.10042 18.6821 10.7905 18.6821Z" fill="#A0A0A0"/>
</svg>
