<svg width="22" height="22" viewBox="0 0 22 22" fill="none" xmlns="http://www.w3.org/2000/svg">
<path d="M0 11C0 8.08262 1.15893 5.28473 3.22183 3.22183C5.28473 1.15893 8.08262 0 11 0C13.9174 0 16.7153 1.15893 18.7782 3.22183C20.8411 5.28473 22 8.08262 22 11C22 13.9174 20.8411 16.7153 18.7782 18.7782C16.7153 20.8411 13.9174 22 11 22C8.08262 22 5.28473 20.8411 3.22183 18.7782C1.15893 16.7153 0 13.9174 0 11ZM13.6923 5.775C13.7317 5.6918 13.754 5.60154 13.7578 5.50956C13.7617 5.41758 13.7471 5.32576 13.7148 5.23954C13.6825 5.15333 13.6332 5.07447 13.5699 5.00766C13.5066 4.94085 13.4305 4.88744 13.3461 4.85059C13.2617 4.81375 13.1708 4.79423 13.0788 4.79319C12.9867 4.79214 12.8954 4.8096 12.8102 4.84452C12.725 4.87944 12.6477 4.93111 12.5829 4.99647C12.518 5.06182 12.467 5.13954 12.4327 5.225L7.62025 16.225C7.58083 16.3082 7.55853 16.3985 7.55466 16.4904C7.55078 16.5824 7.56542 16.6742 7.59771 16.7605C7.62999 16.8467 7.67927 16.9255 7.7426 16.9923C7.80594 17.0592 7.88205 17.1126 7.96642 17.1494C8.05079 17.1862 8.14169 17.2058 8.23375 17.2068C8.32581 17.2079 8.41713 17.1904 8.50232 17.1555C8.5875 17.1206 8.6648 17.0689 8.72964 17.0035C8.79447 16.9382 8.84552 16.8605 8.87975 16.775L13.6923 5.775ZM6.67425 7.76325C6.61039 7.69923 6.53452 7.64843 6.451 7.61377C6.36747 7.57911 6.27793 7.56127 6.1875 7.56127C6.09707 7.56127 6.00753 7.57911 5.924 7.61377C5.84048 7.64843 5.76461 7.69923 5.70075 7.76325L2.95075 10.5133C2.88673 10.5771 2.83593 10.653 2.80127 10.7365C2.76661 10.82 2.74877 10.9096 2.74877 11C2.74877 11.0904 2.76661 11.18 2.80127 11.2635C2.83593 11.347 2.88673 11.4229 2.95075 11.4867L5.70075 14.2367C5.82984 14.3658 6.00493 14.4384 6.1875 14.4384C6.37007 14.4384 6.54516 14.3658 6.67425 14.2367C6.80334 14.1077 6.87587 13.9326 6.87587 13.75C6.87587 13.5674 6.80334 13.3923 6.67425 13.2633L4.40962 11L6.67425 8.73675C6.73827 8.67289 6.78907 8.59702 6.82373 8.5135C6.85839 8.42997 6.87623 8.34043 6.87623 8.25C6.87623 8.15957 6.85839 8.07003 6.82373 7.9865C6.78907 7.90298 6.73827 7.82711 6.67425 7.76325ZM15.3258 8.73675L17.5904 11L15.3258 13.2633C15.1967 13.3923 15.1241 13.5674 15.1241 13.75C15.1241 13.9326 15.1967 14.1077 15.3258 14.2367C15.4548 14.3658 15.6299 14.4384 15.8125 14.4384C15.9951 14.4384 16.1702 14.3658 16.2992 14.2367L19.0492 11.4867C19.1133 11.4229 19.1641 11.347 19.1987 11.2635C19.2334 11.18 19.2512 11.0904 19.2512 11C19.2512 10.9096 19.2334 10.82 19.1987 10.7365C19.1641 10.653 19.1133 10.5771 19.0492 10.5133L16.2992 7.76325C16.1702 7.63416 15.9951 7.56163 15.8125 7.56163C15.6299 7.56163 15.4548 7.63416 15.3258 7.76325C15.1967 7.89234 15.1241 8.06743 15.1241 8.25C15.1241 8.43257 15.1967 8.60766 15.3258 8.73675Z" fill="#B6F214"/>
</svg>
