<svg width="21" height="21" viewBox="0 0 21 21" fill="none" xmlns="http://www.w3.org/2000/svg">
<path d="M9.51527 1.27344C8.83961 1.27344 8.19163 1.54184 7.71386 2.01961C7.2361 2.49737 6.96769 3.14536 6.96769 3.82102V14.0113C6.96769 14.687 7.2361 15.335 7.71386 15.8128C8.19163 16.2905 8.83961 16.5589 9.51527 16.5589H15.8855C16.5612 16.5589 17.2091 16.2905 17.6869 15.8128C18.1647 15.335 18.4331 14.687 18.4331 14.0113V7.00549H18.4305V5.62216C18.4304 5.11577 18.2293 4.63013 17.8713 4.27194L15.4333 1.83263C15.0751 1.47467 14.5895 1.27355 14.0831 1.27344H9.514H9.51527ZM15.8855 15.2851H9.51527C9.17744 15.2851 8.85345 15.1509 8.61457 14.912C8.37569 14.6732 8.24148 14.3492 8.24148 14.0113V3.82102C8.24148 3.48319 8.37569 3.15919 8.61457 2.92031C8.85345 2.68143 9.17744 2.54723 9.51527 2.54723H13.3366V4.45791C13.3366 4.96466 13.5379 5.45065 13.8963 5.80897C14.2546 6.1673 14.7406 6.3686 15.2473 6.3686H17.158V7.72009H17.1593V14.0113C17.1593 14.3492 17.0251 14.6732 16.7862 14.912C16.5473 15.1509 16.2233 15.2851 15.8855 15.2851ZM16.8931 5.09481H15.2461C15.0771 5.09481 14.9151 5.02771 14.7957 4.90827C14.6763 4.78883 14.6092 4.62683 14.6092 4.45791V2.8109L16.8931 5.09481ZM4.42139 5.09481C4.42139 4.75698 4.55559 4.43298 4.79447 4.1941C5.03335 3.95522 5.35735 3.82102 5.69518 3.82102V14.0113C5.69518 15.0248 6.09778 15.9968 6.81443 16.7135C7.53108 17.4301 8.50306 17.8327 9.51655 17.8327H15.8855C15.8855 18.1705 15.7513 18.4945 15.5124 18.7334C15.2735 18.9723 14.9495 19.1065 14.6117 19.1065H9.24905C7.96868 19.1065 6.74074 18.5979 5.83538 17.6925C4.93001 16.7871 4.42139 15.5592 4.42139 14.2788V5.09481Z" fill="#A0A0A0"/>
</svg>
