<svg width="41" height="37" viewBox="0 0 41 37" fill="none" xmlns="http://www.w3.org/2000/svg">
<path d="M17.3787 0.000200105H2.80302C1.23333 0.000200105 0 1.23353 0 2.80322V34.197C0 35.7667 1.23333 37 2.80302 37H17.3787C18.9484 37 20.1817 35.7667 20.1817 34.197V33.0195L20.1813 19.8453V2.80301C20.1813 1.23333 18.948 0 17.3783 0L17.3787 0.000200105ZM5.04543 1.12131H15.1363V1.68207C15.1363 2.01837 14.9122 2.24283 14.5755 2.24283H5.60567C5.26937 2.24283 5.04491 2.01876 5.04491 1.68207L5.04543 1.12131ZM19.0605 33.0196V34.1971C19.0605 35.1501 18.3316 35.879 17.3786 35.879H2.80292C1.84994 35.879 1.12101 35.1501 1.12101 34.1971L1.1214 2.80332C1.1214 1.85034 1.8503 1.12141 2.80331 1.12141H3.92441V1.68217C3.92441 2.63514 4.65332 3.36408 5.60632 3.36408H14.5762C15.5291 3.36408 16.2581 2.63517 16.2581 1.68217V1.12141H17.3792C18.3322 1.12141 19.0611 1.85031 19.0611 2.80332V19.8456L19.0605 33.0196Z" fill="#333333"/>
<path d="M28.7705 6.31405L32.1397 2.94482L32.9324 3.73748L29.5632 7.1067L28.7705 6.31405Z" fill="#333333"/>
<path d="M36.3271 18.9487H40.3635V20.0698H36.3271V18.9487Z" fill="#333333"/>
<path d="M28.7236 33.7167L29.553 32.9624L32.3435 36.0317L31.5141 36.786L28.7236 33.7167Z" fill="#333333"/>
<path d="M31.6188 13.0062L21.8645 7.40021V8.68949L29.8251 13.2866L21.8645 17.8834V19.1727L30.4976 14.1833V26.1802L21.8645 31.1696V32.4593L31.6188 26.8532V13.0062Z" fill="#333333"/>
<path d="M7.62402 26.8532L17.3786 32.4593V31.1696L8.74553 26.1802V14.1833L17.3786 19.1727V17.8834L9.41805 13.2866L17.3786 8.68949V7.40021L7.62402 13.0062V26.8532Z" fill="#333333"/>
</svg>
