<svg width="29" height="45" viewBox="0 0 29 45" fill="none" xmlns="http://www.w3.org/2000/svg">
<path d="M0 0V44.277H23.3684V43.0468H1.22992V38.1274H27.0582V44.277H28.288V0H0ZM1.22981 1.23025H27.0581V3.68986H1.22981V1.23025ZM1.22981 4.91978H27.0581V36.8976H1.22981V4.91978ZM11.0694 10.4546V14.1442H7.3794V17.8341H3.68986V31.3632H17.219V27.6733H20.9089V23.9837H24.5985V10.4546H11.0694ZM12.2992 11.6844H23.3684V22.7537H12.2992V11.6844ZM8.60964 15.374H11.0693V23.9836H19.6785V26.4432H8.6092L8.60964 15.374ZM4.91967 19.0639H7.37929V27.6731H15.9889V30.1332H4.91967V19.0639ZM11.0693 39.9725V41.2028H17.2188V39.9725H11.0693Z" fill="#333333"/>
</svg>
