<svg width="41" height="35" viewBox="0 0 41 35" fill="none" xmlns="http://www.w3.org/2000/svg">
<path d="M7.56597 0.00380632C7.3203 0.0343911 7.13912 0.247817 7.14876 0.495147V3.83115H2.38292C1.07112 3.83115 0 4.90227 0 6.21407V31.9496C0 33.2614 1.07112 34.3325 2.38292 34.3325H38.6033C39.9151 34.3325 40.9862 33.2614 40.9862 31.9496V6.21407C40.9862 4.90227 39.9151 3.83115 38.6033 3.83115H33.8375V0.495147C33.8428 0.355193 33.7866 0.219886 33.6832 0.12514C33.5798 0.0303933 33.4402 -0.0138187 33.3012 0.00379788C33.0559 0.0343827 32.8747 0.247809 32.8844 0.495139V3.83114H10.4849C10.3576 3.82948 10.2346 3.87868 10.1438 3.96844C10.0527 4.05787 10.0015 4.18021 10.0015 4.30786C10.0015 4.43552 10.0527 4.55752 10.1438 4.64728C10.2346 4.73671 10.3576 4.78624 10.4849 4.78425H32.8844V7.16717C32.8824 7.29483 32.9319 7.41783 33.0213 7.50858C33.1111 7.59967 33.2331 7.65054 33.3607 7.65054C33.4884 7.65054 33.6107 7.59967 33.7002 7.50858C33.7899 7.41783 33.8391 7.29483 33.8375 7.16717V4.78425H38.6033C39.4035 4.78425 40.0331 5.41389 40.0331 6.21409V31.9496C40.0331 32.7498 39.4035 33.3791 38.6033 33.3791H2.38293C1.58275 33.3791 0.953091 32.7498 0.953091 31.9496V6.21409C0.953091 5.41391 1.58273 4.78425 2.38293 4.78425H7.14877V7.16717C7.14711 7.29483 7.19631 7.41783 7.28607 7.50858C7.37549 7.59967 7.49783 7.65054 7.62549 7.65054C7.75314 7.65054 7.87515 7.59967 7.96491 7.50858C8.05434 7.41783 8.10387 7.29483 8.10188 7.16717V0.495165C8.10753 0.355211 8.05101 0.219903 7.94796 0.125157C7.84457 0.0304102 7.70494 -0.0138018 7.56598 0.00381476L7.56597 0.00380632ZM28.5501 8.58232C28.3556 8.5996 28.1911 8.73391 28.1352 8.92107C28.0797 9.10824 28.1436 9.31036 28.2968 9.43137L30.2179 11.0251C19.0225 11.7997 11.2363 18.8105 9.06954 28.9864C9.02233 29.1164 9.03363 29.2606 9.10079 29.3813C9.16794 29.5023 9.28429 29.5881 9.4196 29.6167C9.55489 29.6449 9.69585 29.613 9.80589 29.5292C9.91593 29.4455 9.98442 29.3181 9.99305 29.1802C12.0698 19.4281 19.3426 12.8044 30.0692 11.9934L28.2969 13.4677C28.1769 13.5382 28.0938 13.6575 28.0692 13.7945C28.0446 13.9315 28.0812 14.0721 28.1693 14.1801C28.257 14.2878 28.3877 14.3517 28.527 14.355C28.6659 14.3583 28.7996 14.3008 28.8927 14.1974L31.7523 11.8145C31.8601 11.7241 31.9222 11.5904 31.9222 11.4495C31.9222 11.3089 31.8601 11.1752 31.7523 11.0848L28.8927 8.70186C28.7986 8.61842 28.6756 8.57553 28.5503 8.58252L28.5501 8.58232ZM11.9139 8.59728C10.3405 8.59728 9.05461 9.88312 9.05461 11.457C9.05461 13.0304 10.3405 14.3163 11.9139 14.3163C13.4877 14.3163 14.7736 13.0304 14.7736 11.457C14.7736 9.8832 13.4878 8.59728 11.9139 8.59728ZM11.9139 9.55036C12.9725 9.55036 13.8204 10.3984 13.8204 11.4569C13.8204 12.5153 12.9724 13.363 11.9139 13.363C10.8555 13.363 10.0078 12.5153 10.0078 11.4569C10.0078 10.3984 10.8555 9.55036 11.9139 9.55036ZM27.1646 16.6991C25.5912 16.6991 24.3053 17.985 24.3053 19.5588C24.3053 21.1322 25.5911 22.4185 27.1646 22.4185C28.7384 22.4185 30.0243 21.1323 30.0243 19.5588C30.0243 17.985 28.7385 16.6991 27.1646 16.6991ZM27.1646 17.6525C28.2232 17.6525 29.0711 18.5003 29.0711 19.5587C29.0711 20.6172 28.2231 21.4649 27.1646 21.4649C26.1062 21.4649 25.2585 20.6172 25.2585 19.5587C25.2585 18.5003 26.1062 17.6525 27.1646 17.6525ZM15.667 23.8332C15.4815 23.8512 15.3236 23.9759 15.2628 24.1517C15.2016 24.3279 15.2492 24.5234 15.3841 24.6524L17.4243 26.7075L15.3841 28.748C15.2944 28.8384 15.2445 28.9614 15.2455 29.0888C15.2465 29.2164 15.2984 29.3384 15.3895 29.4275C15.4805 29.5166 15.6035 29.5658 15.7312 29.5642C15.8589 29.5625 15.9805 29.51 16.069 29.4182L18.1095 27.3777L20.1501 29.4182C20.3352 29.6054 20.6371 29.6077 20.8256 29.4235C21.0141 29.2394 21.018 28.9375 20.8349 28.748L18.7947 26.7075L20.8349 24.6524C20.9785 24.5141 21.0207 24.301 20.9413 24.1185C20.8615 23.9356 20.6766 23.8219 20.4775 23.8332C20.3532 23.8379 20.2355 23.8914 20.1501 23.9822L18.1095 26.0224L16.069 23.9822C15.9662 23.8715 15.817 23.8163 15.667 23.8332L15.667 23.8332Z" fill="#333333"/>
</svg>
