<svg width="33" height="37" viewBox="0 0 33 37" fill="none" xmlns="http://www.w3.org/2000/svg">
<path d="M32.4476 25.4557V11.479C32.447 10.8662 32.2852 10.2644 31.9786 9.73389C31.6719 9.2034 31.2312 8.76286 30.7005 8.45649L18.4709 1.46813C17.9397 1.16145 17.3372 1 16.7238 1C16.1104 1 15.5079 1.16145 14.9767 1.46813L2.74709 8.45649C2.21643 8.76286 1.77567 9.2034 1.46903 9.73389C1.16238 10.2644 1.00063 10.8662 1 11.479V25.4557C1.00063 26.0684 1.16238 26.6702 1.46903 27.2007C1.77567 27.7312 2.21643 28.1718 2.74709 28.4781L14.9767 35.4665C15.5079 35.7732 16.1104 35.9346 16.7238 35.9346C17.3372 35.9346 17.9397 35.7732 18.4709 35.4665L30.7005 28.4781C31.2312 28.1718 31.6719 27.7312 31.9786 27.2007C32.2852 26.6702 32.447 26.0684 32.4476 25.4557Z" stroke="#333333" stroke-linecap="round" stroke-linejoin="round"/>
<path d="M8.86182 4.85757L16.7237 9.40001L24.5856 4.85757" stroke="#333333" stroke-linecap="round" stroke-linejoin="round"/>
<path d="M8.8619 32.0771V23.0097L1 18.4673" stroke="#333333" stroke-linecap="round" stroke-linejoin="round"/>
<path d="M32.4476 18.4673L24.5857 23.0097V32.0771" stroke="#333333" stroke-linecap="round" stroke-linejoin="round"/>
<path d="M1.47168 9.66208L16.7238 18.4849L31.9759 9.66208" stroke="#333333" stroke-linecap="round" stroke-linejoin="round"/>
<path d="M16.7239 36.0779V18.4673" stroke="#333333" stroke-linecap="round" stroke-linejoin="round"/>
</svg>
