<svg width="40" height="35" viewBox="0 0 40 35" fill="none" xmlns="http://www.w3.org/2000/svg">
<path d="M37.3728 20.985H23.3744C23.1805 20.985 23.0234 20.8276 23.0234 20.634V16.9499C23.0234 16.7559 23.1808 16.5989 23.3744 16.5989H37.3728C37.5667 16.5989 37.7238 16.7562 37.7238 16.9499V20.634C37.7238 20.8276 37.5664 20.985 37.3728 20.985ZM23.7246 20.2827H37.0217V17.3008H23.7246V20.2827Z" fill="#333333"/>
<path d="M37.0316 12.7553H23.3734C23.1795 12.7553 23.0225 12.5979 23.0225 12.4043V11.0298C23.0225 10.8359 23.1798 10.6788 23.3734 10.6788H37.0325C37.2264 10.6788 37.3834 10.8362 37.3834 11.0298V12.4043C37.3831 12.5979 37.2257 12.7553 37.0318 12.7553H37.0316ZM23.7245 12.0533H36.6814V11.3808L23.7245 11.3804V12.0533Z" fill="#333333"/>
<path d="M37.0316 15.4426H23.3734C23.1795 15.4426 23.0225 15.2852 23.0225 15.0916V13.7171C23.0225 13.5231 23.1798 13.3661 23.3734 13.3661H37.0325C37.2264 13.3661 37.3834 13.5235 37.3834 13.7171V15.0916C37.3831 15.2855 37.2257 15.4426 37.0318 15.4426H37.0316ZM23.7245 14.7406H36.6814V14.068H23.7245V14.7406Z" fill="#333333"/>
<path d="M26.2779 9.397H24.4884C24.363 9.397 24.2468 9.33007 24.1848 9.22134L23.2902 7.67147C23.2275 7.56275 23.2275 7.42889 23.2902 7.32049L24.1848 5.77063C24.2474 5.6619 24.3637 5.59497 24.4884 5.59497H26.2779C26.4033 5.59497 26.5195 5.6619 26.5815 5.77063L27.4761 7.32049C27.5388 7.42922 27.5388 7.56307 27.4761 7.67147L26.5815 9.22134C26.5188 9.33006 26.4029 9.397 26.2779 9.397ZM24.6908 8.69504H26.0755L26.7673 7.49647L26.0755 6.2979H24.6908L23.999 7.49647L24.6908 8.69504Z" fill="#333333"/>
<path d="M30.3735 9.397C29.3254 9.397 28.4727 8.54421 28.4727 7.49617C28.4727 6.44813 29.3251 5.59534 30.3735 5.59534C31.4219 5.59534 32.2743 6.44813 32.2743 7.49617C32.2737 8.54421 31.4212 9.397 30.3735 9.397ZM30.3735 6.2976C29.7127 6.2976 29.1749 6.83533 29.1749 7.49617C29.1749 8.157 29.7123 8.69474 30.3735 8.69474C31.035 8.69474 31.5721 8.15733 31.5721 7.49617C31.5721 6.83501 31.0343 6.2976 30.3735 6.2976Z" fill="#333333"/>
<path d="M35.7877 29.7786H0.351305C0.157369 29.7786 0.000326493 29.6213 0.000326493 29.4276L0 4.26184C0 4.0679 0.157368 3.91086 0.350979 3.91086H4.44618C4.64011 3.91086 4.79716 4.06823 4.79716 4.26184C4.79716 4.45577 4.63979 4.61282 4.44618 4.61282H0.702275V29.0757H35.4366V25.3818C35.4366 25.1878 35.594 25.0308 35.7876 25.0308C35.9815 25.0308 36.1385 25.1882 36.1385 25.3818V29.4267C36.1385 29.6207 35.9812 29.778 35.7876 29.778L35.7877 29.7786Z" fill="#333333"/>
<path d="M34.3445 28.3852H1.79336C1.59943 28.3852 1.44238 28.2278 1.44238 28.0342V5.65423C1.44238 5.4603 1.59975 5.30325 1.79336 5.30325H4.44543C4.63936 5.30325 4.79641 5.46062 4.79641 5.65423C4.79641 5.84817 4.63904 6.00521 4.44543 6.00521H2.14432V27.6831H33.9934V25.382C33.9934 25.1881 34.1507 25.031 34.3444 25.031C34.5383 25.031 34.6953 25.1884 34.6953 25.382V28.0341C34.6953 28.2283 34.5383 28.3851 34.3444 28.3851L34.3445 28.3852Z" fill="#333333"/>
<path d="M36.9962 25.7332H4.44506C4.25112 25.7332 4.09408 25.5759 4.09408 25.3822L4.09375 3.00308C4.09375 2.80914 4.25112 2.6521 4.44473 2.6521H7.0968C7.29073 2.6521 7.44778 2.80947 7.44778 3.00308C7.44778 3.19701 7.29041 3.35406 7.0968 3.35406H4.79569V25.0311H36.6447V22.73C36.6447 22.5361 36.8021 22.3791 36.9957 22.3791C37.1897 22.3791 37.3467 22.5364 37.3467 22.73V25.3821C37.347 25.5764 37.1897 25.7334 36.996 25.7334L36.9962 25.7332Z" fill="#333333"/>
<path d="M39.6492 23.0811H7.09805C6.90411 23.0811 6.74707 22.9238 6.74707 22.7301V0.350979C6.74707 0.157042 6.90444 0 7.09805 0H39.6492C39.8431 0 40.0002 0.157368 40.0002 0.350979V22.7301C40.0005 22.9238 39.8431 23.0811 39.6495 23.0811H39.6492ZM7.4491 22.3788H39.2981V0.701765H7.4491V22.3788Z" fill="#333333"/>
<path d="M20.3368 33.2055H15.8021C15.6082 33.2055 15.4512 33.0481 15.4512 32.8545V29.4266C15.4512 29.2327 15.6085 29.0756 15.8021 29.0756H20.3368C20.5308 29.0756 20.6878 29.233 20.6878 29.4266V32.8541C20.6881 33.0481 20.5311 33.2055 20.3368 33.2055V33.2055ZM16.1534 32.5032H19.9859V29.778H16.1534V32.5032Z" fill="#333333"/>
<path d="M24.4299 34.3772H11.7104C11.5164 34.3772 11.3594 34.2199 11.3594 34.0263V32.8548C11.3594 32.6608 11.5167 32.5038 11.7104 32.5038H24.4299C24.6238 32.5038 24.7809 32.6612 24.7809 32.8548V34.0263C24.7809 34.2199 24.6235 34.3772 24.4299 34.3772ZM12.0614 33.6753H24.078V33.2058H12.0614V33.6753Z" fill="#333333"/>
<path d="M39.6492 4.11965H7.09805C6.90411 4.11965 6.74707 3.96228 6.74707 3.76867C6.74707 3.57474 6.90444 3.41769 7.09805 3.41769H39.6492C39.8431 3.41769 40.0002 3.57506 40.0002 3.76867C40.0005 3.96228 39.8431 4.11965 39.6495 4.11965H39.6492Z" fill="#333333"/>
<path d="M10.7561 2.41711H9.51114C9.3172 2.41711 9.16016 2.25974 9.16016 2.06613C9.16016 1.87219 9.31753 1.71515 9.51114 1.71515H10.7561C10.95 1.71515 11.1071 1.87252 11.1071 2.06613C11.1074 2.25974 10.95 2.41711 10.7561 2.41711Z" fill="#333333"/>
<path d="M13.9289 2.41717H12.684C12.4901 2.41717 12.333 2.2598 12.333 2.06619C12.333 1.87225 12.4904 1.71521 12.684 1.71521H13.9289C14.1229 1.71521 14.2799 1.87258 14.2799 2.06619C14.2799 2.2598 14.1232 2.41717 13.9289 2.41717Z" fill="#333333"/>
<path d="M21.4118 21.4529H8.989C8.79506 21.4529 8.63802 21.2955 8.63802 21.1019L8.6377 5.6542C8.6377 5.46027 8.79506 5.30322 8.98867 5.30322H21.4115C21.6054 5.30322 21.7625 5.46059 21.7625 5.6542V21.1011C21.7628 21.295 21.6055 21.4524 21.4118 21.4524V21.4529ZM9.34005 20.7509H21.0608V6.00531H9.34005V20.7509Z" fill="#333333"/>
<path d="M10.2885 10.8121C10.1987 10.8121 10.1086 10.7778 10.0403 10.7092C9.90322 10.5721 9.90322 10.3498 10.0403 10.2126L13.5864 6.66656C13.7235 6.52944 13.9459 6.52944 14.083 6.66656C14.2201 6.80369 14.2201 7.02604 14.083 7.16316L10.5369 10.7092C10.4677 10.7775 10.3783 10.8121 10.2885 10.8121H10.2885Z" fill="#333333"/>
<path d="M10.571 14.0751C10.4812 14.0751 10.3911 14.0409 10.3228 13.9723C10.1857 13.8352 10.1857 13.6128 10.3228 13.4757L16.8504 6.94809C16.9876 6.81096 17.2099 6.81096 17.347 6.94809C17.4841 7.08521 17.4841 7.30756 17.347 7.44468L10.8191 13.9723C10.7508 14.0405 10.6611 14.0751 10.5709 14.0751H10.571Z" fill="#333333"/>
</svg>
