<svg width="41" height="41" viewBox="0 0 41 41" fill="none" xmlns="http://www.w3.org/2000/svg">
<path d="M9.53944 23.4256C9.53944 29.2359 14.239 33.9628 20.0767 33.9628C25.9743 33.9628 30.6176 29.17 30.6176 23.4256C30.6176 17.6278 25.92 12.8883 20.0767 12.8883C19.462 12.8883 18.851 12.9441 18.2508 13.0493C18.5273 12.4127 18.519 11.6785 18.2203 11.0396C20.7409 10.0101 23.5226 9.78459 26.2358 10.0059C26.6582 10.0415 26.9512 9.57665 26.7211 9.21142V9.21113L25.2928 6.94173C26.2944 6.09802 26.537 4.64982 25.8222 3.51432C25.1076 2.37874 23.6965 1.97087 22.5028 2.50931L21.0743 0.239618C21.0683 0.23023 21.0595 0.223688 21.0533 0.214585C20.9497 0.0715059 20.7844 -0.00928207 20.6084 0.00124061C20.6007 0.00152505 20.5933 -0.0004661 20.5853 0.000102781C20.3871 0.0194456 20.2195 0.147733 20.1481 0.334629C18.9955 3.34077 17.2512 6.13783 14.6149 8.0282C14.3443 7.78215 13.9654 7.75967 13.675 7.94286L11.6326 9.2286C11.2662 9.45901 11.1573 9.94174 11.3874 10.3067L11.7492 10.8816L10.8342 11.4579C10.4695 11.6878 10.3597 12.1713 10.5892 12.5363L11.1004 13.3479C11.3288 13.7117 11.8101 13.825 12.1785 13.5937L13.0939 13.0177L13.4557 13.5926C13.6861 13.9586 14.1703 14.0665 14.5338 13.8378L14.6414 13.7701L14.9364 14.2383C11.6017 16.1 9.53906 19.5736 9.53906 23.4254L9.53944 23.4256ZM11.8472 13.0667C11.7676 13.1165 11.672 13.0875 11.6276 13.0167L11.1162 12.2051C11.0695 12.1305 11.092 12.0321 11.1662 11.9852L12.0813 11.4092L12.7623 12.4912L11.8472 13.0667ZM19.7665 13.5372V18.8606C18.5678 18.8242 17.4092 18.5773 16.3132 18.1242C16.8292 16.3491 17.9443 13.8297 19.7665 13.5373V13.5372ZM26.8527 16.1935C26.123 16.8785 25.3018 17.4332 24.4117 17.863C23.8505 15.9722 23.0415 14.5457 22.0883 13.7165C23.8799 14.0815 25.52 14.9417 26.8527 16.1936V16.1935ZM27.2925 30.2226C26.4801 29.4568 25.5678 28.8321 24.5833 28.3659C24.9429 26.9442 25.1423 25.3572 25.1647 23.7367H29.9872C29.9124 26.1685 28.9649 28.4499 27.2925 30.2226H27.2925ZM22.0892 33.1345C23.0441 32.3039 23.8542 30.8739 24.4152 28.9786C25.2981 29.409 26.1199 29.9714 26.8535 30.6601C25.4998 31.9296 23.8727 32.769 22.0891 33.1345H22.0892ZM13.3004 30.6612C14.0343 29.9719 14.8566 29.4093 15.7402 28.9786C16.2989 30.8734 17.1073 32.3031 18.0617 33.1337C16.2468 32.7608 14.608 31.8946 13.3004 30.6612V30.6612ZM10.1693 23.7363H14.9887C15.0114 25.3609 15.2114 26.9481 15.5721 28.3655C14.587 28.832 13.6744 29.457 12.862 30.2231C11.1909 28.4495 10.2439 26.1678 10.1693 23.7363H10.1693ZM19.7665 19.4831V23.1139H15.6111C15.6333 21.5801 15.8179 20.0793 16.1508 18.7307C17.2994 19.1952 18.5126 19.4472 19.7665 19.4831H19.7665ZM19.7665 33.3148C18.3735 33.092 17.0824 31.3802 16.3134 28.7213C17.3983 28.2765 18.5638 28.027 19.7665 27.9903V33.3148ZM20.3889 33.3142V27.9903C21.5919 28.027 22.7572 28.2768 23.8425 28.7219C23.0707 31.3785 21.7796 33.0898 20.3889 33.3142ZM20.3889 27.3679V23.7365H24.5419C24.5198 25.2686 24.3357 26.7677 24.004 28.1152C22.8662 27.6586 21.6467 27.404 20.3888 27.3679H20.3889ZM20.3889 23.1141V19.4833C21.6402 19.4472 22.8529 19.1949 24.0023 18.7306C24.3352 20.0793 24.5198 21.5801 24.542 23.1141H20.3889ZM20.3889 18.8606V13.5378C21.7782 13.762 23.0679 15.4707 23.8397 18.1241C22.7428 18.5767 21.5847 18.8239 20.3889 18.8605V18.8606ZM19.7665 23.7365V27.3679C18.5086 27.404 17.2889 27.6586 16.151 28.1152C15.8182 26.7714 15.6333 25.2723 15.6114 23.7365H19.7665ZM25.1646 23.1141C25.1419 21.4916 24.9419 19.902 24.5812 18.4786C25.5743 18.013 26.4837 17.3931 27.2919 16.6316C28.9642 18.401 29.912 20.6812 29.9868 23.1142L25.1646 23.1141ZM14.9886 23.1141H10.1693C10.2441 20.682 11.1907 18.4024 12.8614 16.6319C13.6659 17.3896 14.5758 18.0092 15.572 18.4782C15.2113 19.9014 15.0114 21.4912 14.9886 23.1141L14.9886 23.1141ZM15.7407 17.8622C14.8492 17.4304 14.0294 16.8762 13.304 16.1964C14.6224 14.9599 16.2234 14.0988 18.0761 13.7179C16.9101 14.7303 16.1742 16.4055 15.7407 17.8622ZM17.6557 11.2884C17.9572 11.9187 17.869 12.6794 17.4213 13.227C17.3903 13.2349 17.066 13.3251 16.938 13.3652L16.4689 12.6197L16.5764 12.552C16.8854 12.3574 17.0028 11.981 16.9076 11.6667C17.1377 11.5413 17.3988 11.4084 17.6556 11.2884L17.6557 11.2884ZM20.6567 0.746031C21.051 1.37213 19.0251 -1.84626 26.0847 9.36953C25.6726 9.3391 25.2672 9.32089 24.8672 9.31179L20.1825 1.86872C20.3472 1.50433 20.5062 1.13111 20.6567 0.746252L20.6567 0.746031ZM25.2954 3.84662C25.8259 4.68887 25.6674 5.7576 24.9577 6.40986L22.8382 3.04216C23.7334 2.68517 24.7652 3.00376 25.2954 3.84662H25.2954ZM19.8676 2.537L24.1291 9.30713C21.2664 9.33984 18.7418 9.94658 16.6001 11.1223L14.975 8.54083C16.9614 7.11768 18.6007 5.10432 19.868 2.53707L19.8676 2.537ZM13.9822 13.2614C13.9626 13.2301 11.785 9.77078 11.9142 9.97563C11.867 9.89996 11.8909 9.80182 11.9643 9.75603L14.007 8.47C14.079 8.42449 14.1782 8.44383 14.2266 8.51978C14.1976 8.47398 14.5148 8.98231 16.2932 11.8067C16.3379 11.877 16.3211 11.9754 16.244 12.0243C16.2118 12.0445 14.1638 13.3348 14.2024 13.3106C14.1273 13.3581 14.0292 13.3354 13.9823 13.2614L13.9822 13.2614ZM15.9418 12.9513L16.3378 13.5806C16.0482 13.6895 15.7635 13.8098 15.4869 13.9452L15.1678 13.4386L15.9418 12.9513Z" fill="#333333"/>
<path d="M26.8417 3.25078L26.4929 2.73506L27.1443 2.29443L27.4931 2.81015L26.8417 3.25078Z" fill="#333333"/>
<path d="M27.8919 4.17896L27.936 4.79964L27.1515 4.85539L27.1074 4.23471L27.8919 4.17896Z" fill="#333333"/>
<path d="M25.3684 1.13348L25.9285 1.406L25.5843 2.11344L25.0242 1.84093L25.3684 1.13348Z" fill="#333333"/>
<path d="M5.14618 40.1081H35.0102C37.8483 40.1081 40.1572 37.7995 40.1572 34.9617C40.1572 34.7896 40.0178 34.6505 39.846 34.6505H38.438V15.0754C38.438 13.6184 37.2524 12.4328 35.7951 12.4328H32.1932V13.0555H35.7951C36.909 13.0555 37.8153 13.9617 37.8153 15.0757V34.65H36.5264V15.0786C36.5264 14.6752 36.1981 14.3469 35.7951 14.3469L32.1932 14.3467V14.9693H35.7951C35.8551 14.9693 35.904 15.0183 35.904 15.0786V34.6508H4.25439V15.0786C4.25439 15.0183 4.30332 14.9693 4.36334 14.9693H7.96202V14.3467H4.36334C3.95997 14.3467 3.6317 14.6749 3.6317 15.0783V34.649L2.34 34.6493V15.0786C2.34 13.963 3.24771 13.0552 4.36334 13.0552H7.96202V12.4326H4.36334C2.90436 12.4326 1.7173 13.6196 1.7173 15.0786V34.6508H0.311195C0.13938 34.6508 2.62775e-08 34.7899 2.62775e-08 34.962C-0.000284414 37.8 2.30865 40.1084 5.14643 40.1084L5.14618 40.1081ZM25.2929 35.2731L24.2999 36.9088L15.8562 36.9085L14.8632 35.2729L25.2929 35.2731ZM14.1345 35.2731L15.4152 37.3818C15.4715 37.4746 15.5725 37.5315 15.6811 37.5315H24.475C24.5837 37.5315 24.6847 37.4746 24.741 37.3818L26.0216 35.2731H39.5234C39.363 37.6231 37.4 39.4857 35.0097 39.4857H5.14564C2.75565 39.4857 0.792602 37.6231 0.632177 35.2731H14.1345Z" fill="#333333"/>
<path d="M5.58975 38.5907C6.25794 38.5907 6.80157 38.0471 6.80157 37.3789C6.80157 36.7107 6.25797 36.1667 5.58975 36.1667C4.92155 36.1667 4.37793 36.7106 4.37793 37.3789C4.37793 38.0473 4.92153 38.5907 5.58975 38.5907ZM5.58975 36.7895C5.92029 36.7895 6.17915 37.0487 6.17915 37.3789C6.17915 37.7095 5.92029 37.968 5.58975 37.968C5.2649 37.968 5.00035 37.7038 5.00035 37.3789C5.00063 37.0541 5.26489 36.7895 5.58975 36.7895Z" fill="#333333"/>
<path d="M9.61319 38.5907C10.2814 38.5907 10.825 38.0471 10.825 37.3789C10.825 36.7107 10.2814 36.1667 9.61319 36.1667C8.94499 36.1667 8.40137 36.7106 8.40137 37.3789C8.40108 38.0473 8.94496 38.5907 9.61319 38.5907ZM9.61319 36.7895C9.94373 36.7895 10.2026 37.0487 10.2026 37.3789C10.2026 37.7095 9.94373 37.968 9.61319 37.968C9.28834 37.968 9.02379 37.7038 9.02379 37.3789C9.02379 37.0541 9.28805 36.7895 9.61319 36.7895Z" fill="#333333"/>
</svg>
