<svg width="18" height="18" viewBox="0 0 18 18" fill="none" xmlns="http://www.w3.org/2000/svg">
<path d="M13.4503 3.55008C13.2525 3.55008 13.0592 3.60873 12.8948 3.71861C12.7303 3.82849 12.6021 3.98467 12.5264 4.1674C12.4508 4.35012 12.431 4.55119 12.4695 4.74517C12.5081 4.93915 12.6034 5.11734 12.7432 5.25719C12.8831 5.39704 13.0613 5.49228 13.2552 5.53087C13.4492 5.56945 13.6503 5.54965 13.833 5.47396C14.0157 5.39827 14.1719 5.2701 14.2818 5.10565C14.3917 4.9412 14.4503 4.74786 14.4503 4.55008C14.4503 4.28486 14.345 4.03051 14.1574 3.84297C13.9699 3.65544 13.7155 3.55008 13.4503 3.55008ZM17.2837 5.56675C17.2675 4.87533 17.138 4.19125 16.9003 3.54175C16.6884 2.98603 16.3586 2.48281 15.9337 2.06675C15.521 1.6396 15.0166 1.3119 14.4587 1.10841C13.8109 0.863549 13.126 0.73109 12.4337 0.716748C11.5503 0.666748 11.267 0.666748 9.00033 0.666748C6.73366 0.666748 6.45033 0.666748 5.56699 0.716748C4.87462 0.73109 4.18978 0.863549 3.54199 1.10841C2.98506 1.31396 2.4811 1.64138 2.06699 2.06675C1.63985 2.4794 1.31214 2.98378 1.10866 3.54175C0.863793 4.18953 0.731334 4.87438 0.716992 5.56675C0.666992 6.45008 0.666992 6.73342 0.666992 9.00008C0.666992 11.2667 0.666992 11.5501 0.716992 12.4334C0.731334 13.1258 0.863793 13.8106 1.10866 14.4584C1.31214 15.0164 1.63985 15.5208 2.06699 15.9334C2.4811 16.3588 2.98506 16.6862 3.54199 16.8917C4.18978 17.1366 4.87462 17.2691 5.56699 17.2834C6.45033 17.3334 6.73366 17.3334 9.00033 17.3334C11.267 17.3334 11.5503 17.3334 12.4337 17.2834C13.126 17.2691 13.8109 17.1366 14.4587 16.8917C15.0166 16.6883 15.521 16.3606 15.9337 15.9334C16.3605 15.5189 16.6906 15.0152 16.9003 14.4584C17.138 13.8089 17.2675 13.1248 17.2837 12.4334C17.2837 11.5501 17.3337 11.2667 17.3337 9.00008C17.3337 6.73342 17.3337 6.45008 17.2837 5.56675ZM15.7837 12.3334C15.7776 12.8624 15.6818 13.3865 15.5003 13.8834C15.3673 14.2461 15.1536 14.5738 14.8753 14.8417C14.605 15.1172 14.278 15.3304 13.917 15.4667C13.4201 15.6482 12.896 15.744 12.367 15.7501C11.5337 15.7917 11.2253 15.8001 9.03366 15.8001C6.84199 15.8001 6.53366 15.8001 5.70033 15.7501C5.15107 15.7604 4.60415 15.6758 4.08366 15.5001C3.73848 15.3568 3.42646 15.1441 3.16699 14.8751C2.8904 14.6074 2.67936 14.2794 2.55033 13.9167C2.34687 13.4127 2.23403 12.8767 2.21699 12.3334C2.21699 11.5001 2.16699 11.1917 2.16699 9.00008C2.16699 6.80841 2.16699 6.50008 2.21699 5.66675C2.22073 5.12596 2.31945 4.59004 2.50866 4.08341C2.65536 3.73167 2.88055 3.41813 3.16699 3.16675C3.42017 2.88022 3.73307 2.65266 4.08366 2.50008C4.59162 2.31678 5.12699 2.22098 5.66699 2.21675C6.50033 2.21675 6.80866 2.16675 9.00033 2.16675C11.192 2.16675 11.5003 2.16675 12.3337 2.21675C12.8626 2.22282 13.3867 2.31862 13.8837 2.50008C14.2624 2.64062 14.6022 2.86912 14.8753 3.16675C15.1484 3.42273 15.3618 3.73569 15.5003 4.08341C15.6855 4.59086 15.7814 5.12656 15.7837 5.66675C15.8253 6.50008 15.8337 6.80841 15.8337 9.00008C15.8337 11.1917 15.8253 11.5001 15.7837 12.3334ZM9.00033 4.72508C8.15517 4.72673 7.32946 4.97885 6.62754 5.4496C5.92561 5.92034 5.37897 6.58858 5.05669 7.36988C4.7344 8.15117 4.65093 9.01047 4.81682 9.83919C4.98271 10.6679 5.39052 11.4289 5.98872 12.0259C6.58692 12.6229 7.34867 13.0293 8.17771 13.1935C9.00675 13.3578 9.86588 13.2727 10.6466 12.9489C11.4272 12.6251 12.0944 12.0771 12.5638 11.3743C13.0331 10.6714 13.2837 9.84524 13.2837 9.00008C13.2848 8.43767 13.1747 7.88059 12.9597 7.36088C12.7447 6.84117 12.4291 6.36909 12.0311 5.97179C11.633 5.57449 11.1603 5.25981 10.6402 5.04586C10.12 4.8319 9.56274 4.72288 9.00033 4.72508ZM9.00033 11.7751C8.45148 11.7751 7.91496 11.6123 7.45862 11.3074C7.00227 11.0025 6.64659 10.5691 6.43656 10.062C6.22653 9.55496 6.17157 8.997 6.27865 8.45871C6.38572 7.92041 6.65001 7.42595 7.0381 7.03786C7.4262 6.64977 7.92065 6.38548 8.45895 6.2784C8.99725 6.17133 9.55521 6.22628 10.0623 6.43632C10.5693 6.64635 11.0027 7.00203 11.3077 7.45837C11.6126 7.91472 11.7753 8.45124 11.7753 9.00008C11.7753 9.3645 11.7035 9.72535 11.5641 10.062C11.4246 10.3987 11.2202 10.7046 10.9625 10.9623C10.7049 11.22 10.399 11.4244 10.0623 11.5638C9.72559 11.7033 9.36474 11.7751 9.00033 11.7751Z" fill="#556987"/>
</svg>
