<svg width="38" height="30" viewBox="0 0 38 30" fill="none" xmlns="http://www.w3.org/2000/svg">
<path d="M33.0055 12.0243C31.7436 13.5273 30.4768 15.0304 29.2199 16.5334C27.8892 18.1216 26.5488 19.6998 25.2623 21.3231C24.624 22.1247 24.187 22.2049 23.48 21.3231C19.5912 16.5334 15.7122 11.7437 11.686 7.06427C10.8269 6.13943 9.73712 5.47086 8.53371 5.13036C7.39948 4.79469 6.27999 5.45602 5.71533 6.60334C5.22432 7.63542 5.75461 8.50218 6.45675 9.21862C7.99851 10.7968 9.56974 12.3449 11.1361 13.8981C12.0493 14.8049 12.9871 15.6867 13.9004 16.5935C16.1885 18.8731 17.0822 21.6036 15.9774 24.7149C14.8039 28.0016 12.1917 29.6248 8.8676 29.9505C5.26851 30.2962 2.45504 28.6729 0 25.752C0.949352 24.9067 1.95148 24.1251 3.00006 23.4123C3.27502 23.247 4.0459 23.6879 4.47308 24.0235C5.9461 25.2159 7.46823 25.8823 9.38315 25.2761C12.1917 24.3843 12.8939 22.0445 10.8022 19.8751C8.44533 17.4302 5.89209 15.1907 3.57453 12.6906C2.54296 11.5946 1.79244 10.2557 1.38955 8.79276C0.62849 5.5462 1.96403 3.00607 4.74313 1.47298C7.68918 -0.100202 11.4945 0.325658 13.5813 2.68041C16.6599 6.15243 19.6059 9.7497 22.5863 13.2969C23.1166 13.9231 23.6518 14.5494 24.3392 15.366L37.3166 0L37.7143 0.135273V3.80769C37.7143 11.9792 37.7143 20.1557 37.7143 28.3272C37.7143 29.5697 37.4344 30.1409 36.1185 29.9705C35.2126 29.9147 34.3042 29.9147 33.3983 29.9705V12.2097L33.0055 12.0243Z" fill="#fff"/>
</svg>
