<svg width="514" height="426" viewBox="0 0 514 426" fill="none" xmlns="http://www.w3.org/2000/svg">
<path d="M38.2835 203.716H30.9837C23.1502 203.716 15.6377 206.828 10.0986 212.367C4.55956 217.906 1.44775 225.419 1.44775 233.252V395.329C1.44775 403.162 4.55956 410.675 10.0986 416.214C15.6377 421.753 23.1502 424.865 30.9837 424.865H131.134C138.967 424.865 146.48 421.753 152.019 416.214C157.558 410.675 160.67 403.162 160.67 395.329" stroke="#333333" stroke-width="1.10311" stroke-linecap="round" stroke-linejoin="round" stroke-dasharray="4.41 4.41"/>
<path d="M152.508 50.7839V18.7698C152.508 13.9796 154.408 9.38502 157.791 5.99404C161.175 2.60306 165.765 0.692661 170.555 0.681961H300.793C305.591 0.681961 310.191 2.58764 313.583 5.97978C316.976 9.37191 318.881 13.9726 318.881 18.7698" stroke="#333333" stroke-width="1.10311" stroke-linecap="round" stroke-linejoin="round" stroke-dasharray="4.41 4.41"/>
<path d="M512.838 93.7342V336.244C512.838 344.171 509.69 351.774 504.086 357.381C498.481 362.988 490.88 366.14 482.952 366.143H56.4122C48.4847 366.14 40.8831 362.988 35.2787 357.381C29.6744 351.774 26.5261 344.171 26.5261 336.244V93.7342C26.5261 93.0204 26.5261 92.3874 26.6204 91.6332C27.1455 84.0893 30.5121 77.0252 36.0411 71.8661C41.5701 66.707 48.85 63.8369 56.4122 63.8347H482.952C490.523 63.8378 497.81 66.7155 503.341 71.8858C508.871 77.0562 512.232 84.1335 512.744 91.687C512.811 92.3335 512.838 93.0339 512.838 93.7342Z" fill="white" stroke="#333333" stroke-width="1.10311" stroke-linecap="round" stroke-linejoin="round"/>
<path d="M41.0715 102.839H499.814V326.856C499.814 334.286 496.863 341.412 491.609 346.665C486.355 351.919 479.23 354.87 471.8 354.87H69.099C61.6692 354.87 54.5438 351.919 49.2901 346.665C44.0365 341.412 41.085 334.286 41.085 326.856V102.839H41.0715Z" fill="#333333"/>
<path opacity="0.2" d="M499.827 102.839V326.856C499.867 334.245 496.971 341.346 491.775 346.599C486.58 351.853 479.511 354.828 472.123 354.87H68.7757C61.3875 354.828 54.3187 351.853 49.1235 346.599C43.9283 341.346 41.032 334.245 41.0714 326.856V102.839H499.827Z" fill="white"/>
<path d="M512.744 91.687H26.6201C27.1452 84.1431 30.5118 77.0791 36.0408 71.92C41.5698 66.7609 48.8498 63.8907 56.4119 63.8885H482.952C490.514 63.8907 497.794 66.7609 503.323 71.92C508.852 77.0791 512.219 84.1431 512.744 91.687Z" fill="#B6F214" stroke="#333333" stroke-width="1.10311" stroke-miterlimit="10"/>
<path d="M86.3519 77.7339C86.3519 78.7808 86.0415 79.8042 85.4599 80.6746C84.8783 81.545 84.0516 82.2234 83.0845 82.624C82.1173 83.0247 81.053 83.1295 80.0263 82.9253C78.9995 82.721 78.0564 82.2169 77.3162 81.4767C76.5759 80.7364 76.0718 79.7933 75.8676 78.7666C75.6633 77.7398 75.7682 76.6756 76.1688 75.7084C76.5694 74.7412 77.2478 73.9145 78.1183 73.3329C78.9887 72.7513 80.012 72.4409 81.0589 72.4409C82.4627 72.4409 83.809 72.9986 84.8016 73.9912C85.7943 74.9838 86.3519 76.3301 86.3519 77.7339Z" fill="#333333"/>
<path d="M108.736 77.7339C108.736 78.7808 108.426 79.8042 107.844 80.6746C107.263 81.545 106.436 82.2234 105.469 82.624C104.502 83.0247 103.437 83.1295 102.411 82.9253C101.384 82.721 100.441 82.2169 99.7004 81.4767C98.9602 80.7364 98.4561 79.7933 98.2519 78.7666C98.0476 77.7398 98.1524 76.6756 98.5531 75.7084C98.9537 74.7412 99.6321 73.9145 100.503 73.3329C101.373 72.7513 102.396 72.4409 103.443 72.4409C104.847 72.4409 106.193 72.9986 107.186 73.9912C108.179 74.9838 108.736 76.3301 108.736 77.7339Z" fill="#333333"/>
<path d="M125.827 83.027C128.751 83.027 131.12 80.6572 131.12 77.7339C131.12 74.8107 128.751 72.4409 125.827 72.4409C122.904 72.4409 120.534 74.8107 120.534 77.7339C120.534 80.6572 122.904 83.027 125.827 83.027Z" fill="#333333"/>
<path d="M499.814 102.839V326.856C499.814 334.286 496.863 341.412 491.609 346.665C486.355 351.919 479.23 354.87 471.8 354.87H69.0991C62.6146 354.869 56.3314 352.618 51.321 348.502C46.3106 344.386 42.8834 338.659 41.6239 332.298V332.217C41.2815 330.441 41.1101 328.637 41.1121 326.829V102.839H499.814Z" stroke="#333333" stroke-width="1.10311" stroke-miterlimit="10"/>
<path d="M499.383 137.479C497.419 136.376 495.33 135.513 493.161 134.907L490.642 123.661H479.949L477.457 134.907C475.275 135.502 473.176 136.366 471.208 137.479L461.551 131.297L453.995 138.826L460.069 148.483C458.957 150.452 458.093 152.551 457.497 154.732L446.251 157.224V167.917L457.497 170.436C458.087 172.628 458.951 174.737 460.069 176.712L453.887 186.436L461.457 193.992L471.167 187.81C473.132 188.925 475.226 189.794 477.403 190.396L479.908 201.628H490.562L493.067 190.396C495.237 189.788 497.327 188.919 499.289 187.81L499.787 188.133V137.21L499.383 137.479ZM485.322 176.537C482.589 176.537 479.917 175.726 477.644 174.207C475.371 172.688 473.6 170.529 472.555 168.004C471.509 165.478 471.236 162.699 471.77 160.018C472.305 157.337 473.622 154.875 475.556 152.943C477.49 151.011 479.953 149.696 482.635 149.164C485.316 148.632 488.095 148.908 490.62 149.956C493.145 151.004 495.302 152.777 496.819 155.051C498.335 157.326 499.143 159.999 499.141 162.732C499.141 164.546 498.783 166.342 498.089 168.018C497.394 169.694 496.376 171.216 495.093 172.498C493.809 173.781 492.286 174.797 490.609 175.49C488.933 176.183 487.136 176.539 485.322 176.537Z" fill="#333333"/>
<path d="M306.652 148.321V125.775L282.948 120.509C281.669 115.929 279.861 111.513 277.561 107.351L280.43 102.839H168.508L171.269 107.229C168.941 111.373 167.131 115.788 165.882 120.374L142.164 125.654V148.254L165.882 153.547C167.131 158.167 168.941 162.618 171.269 166.8L158.245 187.285L174.205 203.231L194.677 190.194C198.83 192.53 203.248 194.361 207.836 195.649L213.115 219.285H235.607L240.914 195.595C245.487 194.301 249.89 192.47 254.032 190.14L274.517 203.177L290.463 187.231L277.52 166.746C279.815 162.59 281.622 158.184 282.908 153.614L306.652 148.321ZM224.496 166.18C218.734 166.18 213.102 164.471 208.311 161.27C203.52 158.069 199.786 153.52 197.581 148.196C195.377 142.873 194.8 137.016 195.924 131.365C197.048 125.714 199.822 120.523 203.896 116.449C207.971 112.375 213.161 109.6 218.812 108.476C224.463 107.352 230.321 107.929 235.644 110.134C240.967 112.339 245.517 116.073 248.718 120.863C251.919 125.654 253.628 131.286 253.628 137.048C253.629 140.874 252.877 144.663 251.414 148.199C249.95 151.734 247.805 154.946 245.099 157.651C242.394 160.357 239.181 162.503 235.646 163.966C232.111 165.429 228.322 166.182 224.496 166.18Z" fill="#333333"/>
<path d="M157.06 303.139L158.016 285.239L139.471 280.014C138.61 276.335 137.336 272.766 135.673 269.374L146.878 253.643L134.865 240.323L118.083 249.751C114.875 247.732 111.445 246.092 107.861 244.862L104.655 225.844L86.7693 225.023L81.5975 243.623C77.9126 244.449 74.3404 245.715 70.9576 247.394L55.2401 236.202L41.8931 248.202L51.4017 264.997C49.3632 268.19 47.7172 271.618 46.4992 275.206L41.1119 276.095V300.337L45.0447 301.442C45.8606 305.132 47.1224 308.71 48.8023 312.095L41.0715 322.937L41.5833 332.217V332.298L49.57 341.146L66.3784 331.651C69.5805 333.711 73.0225 335.37 76.6277 336.594L79.7793 354.857L79.9275 355.625L97.8133 356.567L98.2847 354.857L102.985 337.981C106.687 337.152 110.276 335.886 113.679 334.21L129.369 345.389L142.703 333.402L133.275 316.594C135.295 313.404 136.918 309.98 138.11 306.398L157.06 303.139ZM109.558 275.192C106.494 271.784 102.488 269.362 98.0474 268.231C93.6065 267.1 88.9301 267.312 84.6096 268.839C80.289 270.366 76.5186 273.141 73.7752 276.812C71.0318 280.482 69.4387 284.884 69.1975 289.46C68.9562 294.037 70.0776 298.581 72.4199 302.52C74.7621 306.459 78.2199 309.615 82.3559 311.588C86.4919 313.561 91.1202 314.263 95.6553 313.605C100.19 312.948 104.429 310.96 107.834 307.893C112.38 303.786 115.114 298.044 115.437 291.926C115.76 285.807 113.646 279.81 109.558 275.246V275.192Z" fill="#333333"/>
<path d="M300.12 276.458C300.812 273.686 301.178 270.843 301.211 267.987L314.073 261.252L310.517 248.202L295.999 248.875C294.528 246.436 292.779 244.176 290.786 242.141L295.083 228.255L283.365 221.521L273.561 232.215C270.794 231.547 267.962 231.186 265.116 231.137L258.382 218.275L245.344 221.817L246.031 236.35C243.592 237.82 241.332 239.569 239.297 241.562L225.398 237.266L218.664 248.969L229.438 258.761C228.742 261.522 228.384 264.358 228.374 267.205L215.485 273.94L219.041 286.977L233.587 286.29C235.028 288.742 236.77 291.004 238.772 293.024L234.449 306.843L246.18 313.577L255.931 302.964C258.701 303.661 261.546 304.018 264.402 304.028L271.136 316.903L284.174 313.361L283.594 300.943L283.5 298.815C285.974 297.359 288.262 295.609 290.315 293.603L304.201 297.913L309.938 287.893L310.908 286.196L300.12 276.458ZM269.318 284.378C265.975 285.3 262.433 285.208 259.142 284.114C255.85 283.021 252.958 280.974 250.832 278.234C248.705 275.495 247.44 272.185 247.197 268.725C246.954 265.266 247.744 261.812 249.467 258.802C251.19 255.792 253.768 253.361 256.874 251.818C259.98 250.275 263.474 249.69 266.914 250.135C270.353 250.581 273.582 252.038 276.192 254.322C278.803 256.606 280.676 259.613 281.574 262.963C282.772 267.427 282.155 272.184 279.859 276.196C277.563 280.208 273.774 283.149 269.318 284.378Z" fill="#333333"/>
<path d="M449.241 299.408L452.204 281.495L434.076 274.209C433.664 270.391 432.791 266.638 431.476 263.03L444.527 248.498L433.968 233.683L415.974 241.319C412.987 238.925 409.722 236.899 406.25 235.286L405.2 215.77L387.287 212.807L379.947 230.855C376.146 231.301 372.408 232.182 368.808 233.481L354.236 220.43L339.488 230.989L347.138 248.969C345.032 251.598 343.204 254.437 341.683 257.441C341.481 257.858 341.266 258.276 341.077 258.694L321.575 259.771L318.599 277.657L321.535 278.842L336.727 284.97C337.141 288.77 338.014 292.505 339.326 296.095L326.249 310.721L336.821 325.537L354.801 317.86C357.779 320.276 361.04 322.32 364.512 323.947L365.522 343.368L383.421 346.332L390.748 328.419C394.557 328.003 398.302 327.125 401.9 325.806L416.446 338.857L431.261 328.284L423.611 310.29C426.048 307.3 428.106 304.021 429.739 300.526L449.241 299.408ZM399.004 298.6C395.236 301.304 390.75 302.829 386.115 302.983C381.479 303.138 376.902 301.914 372.963 299.467C369.023 297.019 365.897 293.459 363.981 289.235C362.065 285.011 361.445 280.314 362.198 275.738C362.952 271.162 365.046 266.912 368.215 263.525C371.384 260.139 375.486 257.769 380.003 256.714C384.519 255.66 389.247 255.968 393.588 257.6C397.93 259.233 401.689 262.116 404.391 265.886C408.011 270.942 409.475 277.229 408.459 283.364C407.444 289.499 404.033 294.98 398.977 298.6H399.004Z" fill="#333333"/>
</svg>
