<svg width="408" height="389" viewBox="0 0 408 389" fill="none" xmlns="http://www.w3.org/2000/svg">
<path d="M159.489 139.8H18.6381C8.88646 139.8 0.981201 147.705 0.981201 157.456V352.463C0.981201 362.215 8.88646 370.12 18.6381 370.12H159.489C169.241 370.12 177.146 362.215 177.146 352.463V157.456C177.146 147.705 169.241 139.8 159.489 139.8Z" fill="#B6F214" stroke="#333333" stroke-width="1.10311" stroke-miterlimit="10"/>
<path opacity="0.2" d="M159.489 139.8H18.6381C8.88646 139.8 0.981201 147.705 0.981201 157.456V352.463C0.981201 362.215 8.88646 370.12 18.6381 370.12H159.489C169.241 370.12 177.146 362.215 177.146 352.463V157.456C177.146 147.705 169.241 139.8 159.489 139.8Z" fill="black"/>
<path d="M193.537 174.857V369.864C193.539 372.184 193.083 374.482 192.197 376.626C191.31 378.769 190.01 380.717 188.37 382.358C186.73 383.999 184.783 385.301 182.64 386.189C180.497 387.078 178.2 387.535 175.88 387.535H35.0289C32.7102 387.533 30.4145 387.075 28.2729 386.186C26.1314 385.297 24.1859 383.995 22.5476 382.354C20.9092 380.713 19.6101 378.765 18.7244 376.622C17.8387 374.48 17.3837 372.183 17.3855 369.864V174.857C17.3855 170.177 19.2439 165.688 22.5523 162.377C25.8607 159.066 30.3484 157.204 35.0289 157.201H175.88C180.563 157.201 185.054 159.061 188.365 162.372C191.677 165.683 193.537 170.175 193.537 174.857Z" fill="white" stroke="#333333" stroke-width="1.10311" stroke-linecap="round" stroke-linejoin="round"/>
<path d="M193.537 174.857V185.295H17.3855V174.857C17.3855 170.177 19.2439 165.688 22.5523 162.377C25.8607 159.066 30.3484 157.204 35.0289 157.201H175.88C180.563 157.201 185.054 159.061 188.365 162.372C191.677 165.683 193.537 170.175 193.537 174.857Z" fill="#B6F214" stroke="#333333" stroke-width="1.10311" stroke-miterlimit="10"/>
<path d="M77.2925 197.39H33.9517V204.663H77.2925V197.39Z" fill="#B6F214"/>
<path d="M77.2925 262.563H33.9517V269.836H77.2925V262.563Z" fill="#B6F214"/>
<path d="M77.2925 321.661H33.9517V328.934H77.2925V321.661Z" fill="#B6F214"/>
<path d="M157.038 215.397H33.9517V220.73H157.038V215.397Z" fill="#333333"/>
<path d="M134.842 225.592H33.9517V230.791H134.842V225.592Z" fill="#333333"/>
<path d="M148.055 235.626H33.9517V240.825H148.055V235.626Z" fill="#333333"/>
<path d="M148.055 245.647H33.9517V250.845H148.055V245.647Z" fill="#333333"/>
<path d="M157.038 274.496H33.9517V279.829H157.038V274.496Z" fill="#333333"/>
<path d="M134.842 284.691H33.9517V289.89H134.842V284.691Z" fill="#333333"/>
<path d="M148.055 294.725H33.9517V299.924H148.055V294.725Z" fill="#333333"/>
<path d="M157.038 339.386H33.9517V344.719H157.038V339.386Z" fill="#333333"/>
<path d="M134.842 349.595H33.9517V354.793H134.842V349.595Z" fill="#333333"/>
<path d="M148.055 359.629H33.9517V364.827H148.055V359.629Z" fill="#333333"/>
<path d="M392.072 21.9792V100.795C392.072 103.561 391.527 106.3 390.469 108.854C389.41 111.409 387.858 113.731 385.902 115.685C383.946 117.64 381.624 119.191 379.068 120.248C376.512 121.305 373.774 121.848 371.008 121.846H189.483C186.717 121.848 183.978 121.305 181.423 120.248C178.867 119.191 176.545 117.64 174.589 115.685C172.633 113.731 171.081 111.409 170.022 108.854C168.963 106.3 168.418 103.561 168.418 100.795V21.9792C168.422 16.3937 170.642 11.0379 174.592 7.08837C178.542 3.13881 183.897 0.918393 189.483 0.914825H371.008C376.595 0.914825 381.952 3.1341 385.903 7.08443C389.853 11.0348 392.072 16.3926 392.072 21.9792Z" fill="white" stroke="black" stroke-width="1.10311" stroke-miterlimit="10"/>
<path d="M392.072 21.9792V23.7839H168.418V21.9792C168.422 16.3937 170.642 11.0379 174.592 7.08837C178.542 3.13881 183.897 0.918393 189.483 0.914825H371.008C376.595 0.914825 381.952 3.1341 385.903 7.08443C389.853 11.0348 392.072 16.3926 392.072 21.9792Z" fill="#B6F214" stroke="#333333" stroke-width="1.10311" stroke-miterlimit="10"/>
<path d="M201.281 16.1205C200.829 16.5733 200.253 16.8819 199.626 17.0073C198.999 17.1327 198.349 17.0691 197.757 16.8247C197.166 16.5803 196.661 16.166 196.306 15.6342C195.95 15.1025 195.76 14.4772 195.76 13.8376C195.76 13.198 195.95 12.5727 196.306 12.041C196.661 11.5092 197.166 11.0949 197.757 10.8505C198.349 10.6061 198.999 10.5425 199.626 10.6679C200.253 10.7933 200.829 11.1019 201.281 11.5547C201.882 12.1624 202.219 12.9828 202.219 13.8376C202.219 14.6924 201.882 15.5128 201.281 16.1205Z" fill="#333333"/>
<path d="M216.258 16.1205C215.806 16.5733 215.23 16.8819 214.603 17.0073C213.975 17.1327 213.325 17.0691 212.734 16.8247C212.143 16.5803 211.638 16.166 211.282 15.6342C210.927 15.1025 210.737 14.4772 210.737 13.8376C210.737 13.198 210.927 12.5727 211.282 12.041C211.638 11.5092 212.143 11.0949 212.734 10.8505C213.325 10.6061 213.975 10.5425 214.603 10.6679C215.23 10.7933 215.806 11.1019 216.258 11.5547C216.859 12.1624 217.196 12.9828 217.196 13.8376C217.196 14.6924 216.859 15.5128 216.258 16.1205Z" fill="#333333"/>
<path d="M231.235 16.1205C230.783 16.5733 230.207 16.8819 229.58 17.0073C228.953 17.1327 228.302 17.0691 227.711 16.8247C227.12 16.5803 226.615 16.166 226.259 15.6342C225.904 15.1025 225.714 14.4772 225.714 13.8376C225.714 13.198 225.904 12.5727 226.259 12.041C226.615 11.5092 227.12 11.0949 227.711 10.8505C228.302 10.6061 228.953 10.5425 229.58 10.6679C230.207 10.7933 230.783 11.1019 231.235 11.5547C231.836 12.1624 232.173 12.9828 232.173 13.8376C232.173 14.6924 231.836 15.5128 231.235 16.1205Z" fill="#333333"/>
<path d="M255.787 38.2758H182.682V101.469H255.787V38.2758Z" stroke="#333333" stroke-width="1.10311" stroke-linecap="round" stroke-linejoin="round" stroke-dasharray="4.41 4.41"/>
<path d="M351.21 38.2758H267.073V42.7203H351.21V38.2758Z" fill="#333333"/>
<path d="M331.613 47.4746H267.073V51.9057H331.613V47.4746Z" fill="#333333"/>
<path d="M363.17 56.633H267.073V61.118H363.17V56.633Z" fill="#333333"/>
<path d="M348.907 65.5625H267.073V70.0474H348.907V65.5625Z" fill="#333333"/>
<path d="M398.187 217.592H357.042C352.184 217.592 348.247 221.53 348.247 226.387V250.536C348.247 255.393 352.184 259.33 357.042 259.33H398.187C403.044 259.33 406.982 255.393 406.982 250.536V226.387C406.982 221.53 403.044 217.592 398.187 217.592Z" fill="white" stroke="#333333" stroke-width="1.10311" stroke-linecap="round" stroke-linejoin="round"/>
<path d="M367.197 230.145L355.897 237.229L366.389 246.522" stroke="#333333" stroke-width="1.10311" stroke-linecap="round" stroke-linejoin="round"/>
<path d="M387.776 247.195L397.931 238.549L386.214 230.872" stroke="#333333" stroke-width="1.10311" stroke-linecap="round" stroke-linejoin="round"/>
<path d="M372.692 252.529L381.029 226.374" stroke="#333333" stroke-width="1.10311" stroke-linecap="round" stroke-linejoin="round"/>
</svg>
