<svg width="592" height="480" viewBox="0 0 592 480" fill="none" xmlns="http://www.w3.org/2000/svg">
<path d="M64.2835 232.716H56.9837C49.1502 232.716 41.6377 235.828 36.0986 241.367C30.5596 246.906 27.4478 254.419 27.4478 262.252V424.329C27.4478 432.162 30.5596 439.675 36.0986 445.214C41.6377 450.753 49.1502 453.865 56.9837 453.865H157.134C164.967 453.865 172.48 450.753 178.019 445.214C183.558 439.675 186.67 432.162 186.67 424.329" stroke="#333333" stroke-width="1.10311" stroke-linecap="round" stroke-linejoin="round" stroke-dasharray="4.41 4.41"/>
<path d="M178.508 79.7839V47.7698C178.508 42.9796 180.408 38.385 183.791 34.994C187.175 31.6031 191.765 29.6927 196.555 29.682H326.793C331.591 29.682 336.191 31.5876 339.583 34.9798C342.976 38.3719 344.881 42.9726 344.881 47.7698" stroke="#333333" stroke-width="1.10311" stroke-linecap="round" stroke-linejoin="round" stroke-dasharray="4.41 4.41"/>
<path d="M538.838 122.734V365.244C538.838 373.171 535.69 380.774 530.086 386.381C524.481 391.988 516.88 395.14 508.952 395.143H82.4122C74.4847 395.14 66.8831 391.988 61.2787 386.381C55.6744 380.774 52.5261 373.171 52.5261 365.244V122.734C52.5261 122.02 52.5261 121.387 52.6204 120.633C53.1455 113.089 56.5121 106.025 62.0411 100.866C67.5701 95.707 74.85 92.8369 82.4122 92.8347H508.952C516.523 92.8378 523.81 95.7155 529.341 100.886C534.871 106.056 538.232 113.134 538.744 120.687C538.811 121.334 538.838 122.034 538.838 122.734Z" fill="white" stroke="#333333" stroke-width="1.10311" stroke-linecap="round" stroke-linejoin="round"/>
<path d="M67.0715 131.839H525.814V355.856C525.814 363.286 522.863 370.412 517.609 375.665C512.355 380.919 505.23 383.87 497.8 383.87H95.099C87.6692 383.87 80.5438 380.919 75.2901 375.665C70.0365 370.412 67.085 363.286 67.085 355.856V131.839H67.0715Z" fill="#333333"/>
<path opacity="0.2" d="M525.827 131.839V355.856C525.867 363.245 522.971 370.346 517.775 375.599C512.58 380.853 505.511 383.828 498.123 383.87H94.7757C87.3875 383.828 80.3187 380.853 75.1235 375.599C69.9283 370.346 67.032 363.245 67.0714 355.856V131.839H525.827Z" fill="white"/>
<path d="M538.744 120.687H52.6201C53.1452 113.143 56.5118 106.079 62.0408 100.92C67.5698 95.7609 74.8498 92.8907 82.4119 92.8885H508.952C516.514 92.8907 523.794 95.7609 529.323 100.92C534.852 106.079 538.219 113.143 538.744 120.687Z" fill="#B6F214" stroke="#333333" stroke-width="1.10311" stroke-miterlimit="10"/>
<path d="M112.352 106.734C112.352 107.781 112.041 108.804 111.46 109.675C110.878 110.545 110.052 111.223 109.084 111.624C108.117 112.025 107.053 112.129 106.026 111.925C105 111.721 104.056 111.217 103.316 110.477C102.576 109.736 102.072 108.793 101.868 107.767C101.663 106.74 101.768 105.676 102.169 104.708C102.569 103.741 103.248 102.915 104.118 102.333C104.989 101.751 106.012 101.441 107.059 101.441C108.463 101.441 109.809 101.999 110.802 102.991C111.794 103.984 112.352 105.33 112.352 106.734Z" fill="#333333"/>
<path d="M134.736 106.734C134.736 107.781 134.426 108.804 133.844 109.675C133.263 110.545 132.436 111.223 131.469 111.624C130.502 112.025 129.437 112.129 128.411 111.925C127.384 111.721 126.441 111.217 125.7 110.477C124.96 109.736 124.456 108.793 124.252 107.767C124.048 106.74 124.152 105.676 124.553 104.708C124.954 103.741 125.632 102.915 126.503 102.333C127.373 101.751 128.396 101.441 129.443 101.441C130.847 101.441 132.193 101.999 133.186 102.991C134.179 103.984 134.736 105.33 134.736 106.734Z" fill="#333333"/>
<path d="M151.827 112.027C154.751 112.027 157.12 109.657 157.12 106.734C157.12 103.811 154.751 101.441 151.827 101.441C148.904 101.441 146.534 103.811 146.534 106.734C146.534 109.657 148.904 112.027 151.827 112.027Z" fill="#333333"/>
<path d="M525.814 131.839V355.856C525.814 363.286 522.863 370.412 517.609 375.665C512.355 380.919 505.23 383.87 497.8 383.87H95.0991C88.6146 383.869 82.3314 381.618 77.321 377.502C72.3106 373.386 68.8834 367.659 67.6239 361.298V361.217C67.2815 359.441 67.1101 357.637 67.1121 355.829V131.839H525.814Z" stroke="#333333" stroke-width="1.10311" stroke-miterlimit="10"/>
<path d="M525.383 166.479C523.419 165.376 521.33 164.513 519.161 163.907L516.642 152.661H505.949L503.457 163.907C501.275 164.502 499.176 165.366 497.208 166.479L487.551 160.297L479.995 167.826L486.069 177.483C484.957 179.452 484.093 181.551 483.497 183.732L472.251 186.224V196.917L483.497 199.436C484.087 201.628 484.951 203.737 486.069 205.712L479.887 215.436L487.457 222.992L497.167 216.81C499.132 217.925 501.226 218.794 503.403 219.396L505.908 230.628H516.562L519.067 219.396C521.237 218.788 523.327 217.919 525.289 216.81L525.787 217.133V166.21L525.383 166.479ZM511.322 205.537C508.589 205.537 505.917 204.726 503.644 203.207C501.371 201.688 499.6 199.529 498.555 197.004C497.509 194.478 497.236 191.699 497.77 189.018C498.305 186.337 499.622 183.875 501.556 181.943C503.49 180.011 505.953 178.696 508.635 178.164C511.316 177.632 514.095 177.908 516.62 178.956C519.145 180.004 521.302 181.777 522.819 184.051C524.335 186.326 525.143 188.999 525.141 191.732C525.141 193.546 524.783 195.342 524.089 197.018C523.394 198.694 522.376 200.216 521.093 201.498C519.809 202.781 518.286 203.797 516.609 204.49C514.933 205.183 513.136 205.539 511.322 205.537Z" fill="#333333"/>
<path d="M332.652 177.321V154.775L308.948 149.509C307.669 144.929 305.861 140.513 303.561 136.351L306.43 131.839H194.508L197.269 136.229C194.941 140.373 193.131 144.788 191.882 149.374L168.164 154.654V177.254L191.882 182.547C193.131 187.167 194.941 191.618 197.269 195.8L184.245 216.285L200.205 232.231L220.677 219.194C224.83 221.53 229.248 223.361 233.836 224.649L239.115 248.285H261.607L266.914 224.595C271.487 223.301 275.89 221.47 280.032 219.14L300.517 232.177L316.463 216.231L303.52 195.746C305.815 191.59 307.622 187.184 308.908 182.614L332.652 177.321ZM250.496 195.18C244.734 195.18 239.102 193.471 234.311 190.27C229.52 187.069 225.786 182.52 223.581 177.196C221.377 171.873 220.8 166.016 221.924 160.365C223.048 154.714 225.822 149.523 229.896 145.449C233.971 141.375 239.161 138.6 244.812 137.476C250.463 136.352 256.321 136.929 261.644 139.134C266.967 141.339 271.517 145.073 274.718 149.863C277.919 154.654 279.628 160.286 279.628 166.048C279.629 169.874 278.877 173.663 277.414 177.199C275.95 180.734 273.805 183.946 271.099 186.651C268.394 189.357 265.181 191.503 261.646 192.966C258.111 194.429 254.322 195.182 250.496 195.18Z" fill="#333333"/>
<path d="M183.06 332.139L184.016 314.239L165.471 309.014C164.61 305.335 163.336 301.766 161.673 298.374L172.878 282.643L160.865 269.323L144.083 278.751C140.875 276.732 137.445 275.092 133.861 273.862L130.655 254.844L112.769 254.023L107.598 272.623C103.913 273.449 100.34 274.715 96.9576 276.394L81.2401 265.202L67.8931 277.202L77.4017 293.997C75.3632 297.19 73.7172 300.618 72.4992 304.206L67.1119 305.095V329.337L71.0447 330.442C71.8606 334.132 73.1224 337.71 74.8023 341.095L67.0715 351.937L67.5833 361.217V361.298L75.57 370.146L92.3784 360.651C95.5805 362.711 99.0225 364.37 102.628 365.594L105.779 383.857L105.927 384.625L123.813 385.567L124.285 383.857L128.985 366.981C132.687 366.152 136.276 364.886 139.679 363.21L155.369 374.389L168.703 362.402L159.275 345.594C161.295 342.404 162.918 338.98 164.11 335.398L183.06 332.139ZM135.558 304.192C132.494 300.784 128.488 298.362 124.047 297.231C119.607 296.1 114.93 296.312 110.61 297.839C106.289 299.366 102.519 302.141 99.7752 305.812C97.0318 309.482 95.4387 313.884 95.1975 318.46C94.9562 323.037 96.0776 327.581 98.4199 331.52C100.762 335.459 104.22 338.615 108.356 340.588C112.492 342.561 117.12 343.263 121.655 342.605C126.19 341.948 130.429 339.96 133.834 336.893C138.38 332.786 141.114 327.044 141.437 320.926C141.76 314.807 139.646 308.81 135.558 304.246V304.192Z" fill="#333333"/>
<path d="M326.12 305.458C326.812 302.686 327.178 299.843 327.211 296.987L340.073 290.252L336.517 277.202L321.999 277.875C320.528 275.436 318.779 273.176 316.786 271.141L321.083 257.255L309.365 250.521L299.561 261.215C296.794 260.547 293.962 260.186 291.116 260.137L284.382 247.275L271.344 250.817L272.031 265.35C269.592 266.82 267.332 268.569 265.297 270.562L251.398 266.266L244.664 277.969L255.438 287.761C254.742 290.522 254.384 293.358 254.374 296.205L241.485 302.94L245.041 315.977L259.587 315.29C261.028 317.742 262.77 320.004 264.772 322.024L260.449 335.843L272.18 342.577L281.931 331.964C284.701 332.661 287.546 333.018 290.402 333.028L297.136 345.903L310.174 342.361L309.594 329.943L309.5 327.815C311.974 326.359 314.262 324.609 316.315 322.603L330.201 326.913L335.938 316.893L336.908 315.196L326.12 305.458ZM295.318 313.378C291.975 314.3 288.433 314.208 285.142 313.114C281.85 312.021 278.958 309.974 276.832 307.234C274.705 304.495 273.44 301.185 273.197 297.725C272.954 294.266 273.744 290.812 275.467 287.802C277.19 284.792 279.768 282.361 282.874 280.818C285.98 279.275 289.474 278.69 292.914 279.135C296.353 279.581 299.582 281.038 302.192 283.322C304.803 285.606 306.676 288.613 307.574 291.963C308.772 296.427 308.155 301.184 305.859 305.196C303.563 309.208 299.774 312.149 295.318 313.378Z" fill="#333333"/>
<path d="M475.241 328.408L478.204 310.495L460.076 303.209C459.664 299.391 458.791 295.638 457.476 292.03L470.527 277.498L459.968 262.683L441.974 270.319C438.987 267.925 435.722 265.899 432.25 264.286L431.2 244.77L413.287 241.807L405.947 259.855C402.146 260.301 398.408 261.182 394.808 262.481L380.236 249.43L365.488 259.989L373.138 277.969C371.032 280.598 369.204 283.437 367.683 286.441C367.481 286.858 367.266 287.276 367.077 287.694L347.575 288.771L344.599 306.657L347.535 307.842L362.727 313.97C363.141 317.77 364.014 321.505 365.326 325.095L352.249 339.721L362.821 354.537L380.801 346.86C383.779 349.276 387.04 351.32 390.512 352.947L391.522 372.368L409.421 375.332L416.748 357.419C420.557 357.003 424.302 356.125 427.9 354.806L442.446 367.857L457.261 357.284L449.611 339.29C452.048 336.3 454.106 333.021 455.739 329.526L475.241 328.408ZM425.004 327.6C421.236 330.304 416.75 331.829 412.115 331.983C407.479 332.138 402.902 330.914 398.963 328.467C395.023 326.019 391.897 322.459 389.981 318.235C388.065 314.011 387.445 309.314 388.198 304.738C388.952 300.162 391.046 295.912 394.215 292.525C397.384 289.139 401.486 286.769 406.003 285.714C410.519 284.66 415.247 284.968 419.588 286.6C423.93 288.233 427.689 291.116 430.391 294.886C434.011 299.942 435.475 306.229 434.459 312.364C433.444 318.499 430.033 323.98 424.977 327.6H425.004Z" fill="#333333"/>
<path d="M232.489 195.8H91.6381C81.8865 195.8 73.9812 203.705 73.9812 213.456V408.463C73.9812 418.215 81.8865 426.12 91.6381 426.12H232.489C242.241 426.12 250.146 418.215 250.146 408.463V213.456C250.146 203.705 242.241 195.8 232.489 195.8Z" fill="#B6F214" stroke="#333333" stroke-width="1.10311" stroke-miterlimit="10"/>
<path opacity="0.2" d="M232.489 195.8H91.6381C81.8865 195.8 73.9812 203.705 73.9812 213.456V408.463C73.9812 418.215 81.8865 426.12 91.6381 426.12H232.489C242.241 426.12 250.146 418.215 250.146 408.463V213.456C250.146 203.705 242.241 195.8 232.489 195.8Z" fill="black"/>
<path d="M266.537 230.857V425.864C266.539 428.184 266.083 430.482 265.197 432.626C264.31 434.769 263.01 436.717 261.37 438.358C259.73 439.999 257.783 441.301 255.64 442.189C253.497 443.078 251.2 443.535 248.88 443.535H108.029C105.71 443.533 103.415 443.075 101.273 442.186C99.1314 441.297 97.1859 439.995 95.5476 438.354C93.9092 436.713 92.6101 434.765 91.7244 432.622C90.8387 430.48 90.3837 428.183 90.3855 425.864V230.857C90.3855 226.177 92.2439 221.688 95.5523 218.377C98.8607 215.066 103.348 213.204 108.029 213.201H248.88C253.563 213.201 258.054 215.061 261.365 218.372C264.677 221.683 266.537 226.175 266.537 230.857Z" fill="white" stroke="#333333" stroke-width="1.10311" stroke-linecap="round" stroke-linejoin="round"/>
<path d="M266.537 230.857V241.295H90.3855V230.857C90.3855 226.177 92.2439 221.688 95.5523 218.377C98.8607 215.066 103.348 213.204 108.029 213.201H248.88C253.563 213.201 258.054 215.061 261.365 218.372C264.677 221.683 266.537 226.175 266.537 230.857Z" fill="#B6F214" stroke="#333333" stroke-width="1.10311" stroke-miterlimit="10"/>
<path d="M150.293 253.39H106.952V260.663H150.293V253.39Z" fill="#B6F214"/>
<path d="M150.293 318.563H106.952V325.836H150.293V318.563Z" fill="#B6F214"/>
<path d="M150.293 377.661H106.952V384.934H150.293V377.661Z" fill="#B6F214"/>
<path d="M230.038 271.397H106.952V276.73H230.038V271.397Z" fill="#333333"/>
<path d="M207.842 281.592H106.952V286.791H207.842V281.592Z" fill="#333333"/>
<path d="M221.055 291.626H106.952V296.825H221.055V291.626Z" fill="#333333"/>
<path d="M221.055 301.647H106.952V306.845H221.055V301.647Z" fill="#333333"/>
<path d="M230.038 330.496H106.952V335.829H230.038V330.496Z" fill="#333333"/>
<path d="M207.842 340.691H106.952V345.89H207.842V340.691Z" fill="#333333"/>
<path d="M221.055 350.725H106.952V355.924H221.055V350.725Z" fill="#333333"/>
<path d="M230.038 395.386H106.952V400.719H230.038V395.386Z" fill="#333333"/>
<path d="M207.842 405.595H106.952V410.793H207.842V405.595Z" fill="#333333"/>
<path d="M221.055 415.629H106.952V420.827H221.055V415.629Z" fill="#333333"/>
<path d="M465.072 77.9792V156.795C465.072 159.561 464.527 162.3 463.469 164.854C462.41 167.409 460.858 169.731 458.902 171.685C456.946 173.64 454.624 175.191 452.068 176.248C449.512 177.305 446.774 177.848 444.008 177.846H262.483C259.717 177.848 256.978 177.305 254.423 176.248C251.867 175.191 249.545 173.64 247.589 171.685C245.633 169.731 244.081 167.409 243.022 164.854C241.963 162.3 241.418 159.561 241.418 156.795V77.9792C241.422 72.3937 243.642 67.0379 247.592 63.0884C251.542 59.1388 256.897 56.9184 262.483 56.9148H444.008C449.595 56.9148 454.952 59.1341 458.903 63.0844C462.853 67.0348 465.072 72.3926 465.072 77.9792Z" fill="white" stroke="black" stroke-width="1.10311" stroke-miterlimit="10"/>
<path d="M465.072 77.9792V79.7839H241.418V77.9792C241.422 72.3937 243.642 67.0379 247.592 63.0884C251.542 59.1388 256.897 56.9184 262.483 56.9148H444.008C449.595 56.9148 454.952 59.1341 458.903 63.0844C462.853 67.0348 465.072 72.3926 465.072 77.9792Z" fill="#B6F214" stroke="#333333" stroke-width="1.10311" stroke-miterlimit="10"/>
<path d="M274.281 72.1205C273.829 72.5733 273.253 72.8819 272.626 73.0073C271.999 73.1327 271.349 73.0691 270.757 72.8247C270.166 72.5803 269.661 72.166 269.306 71.6342C268.95 71.1025 268.76 70.4772 268.76 69.8376C268.76 69.198 268.95 68.5727 269.306 68.041C269.661 67.5092 270.166 67.0949 270.757 66.8505C271.349 66.6061 271.999 66.5425 272.626 66.6679C273.253 66.7933 273.829 67.1019 274.281 67.5547C274.882 68.1624 275.219 68.9828 275.219 69.8376C275.219 70.6924 274.882 71.5128 274.281 72.1205Z" fill="#333333"/>
<path d="M289.258 72.1205C288.806 72.5733 288.23 72.8819 287.603 73.0073C286.975 73.1327 286.325 73.0691 285.734 72.8247C285.143 72.5803 284.638 72.166 284.282 71.6342C283.927 71.1025 283.737 70.4772 283.737 69.8376C283.737 69.198 283.927 68.5727 284.282 68.041C284.638 67.5092 285.143 67.0949 285.734 66.8505C286.325 66.6061 286.975 66.5425 287.603 66.6679C288.23 66.7933 288.806 67.1019 289.258 67.5547C289.859 68.1624 290.196 68.9828 290.196 69.8376C290.196 70.6924 289.859 71.5128 289.258 72.1205Z" fill="#333333"/>
<path d="M304.235 72.1205C303.783 72.5733 303.207 72.8819 302.58 73.0073C301.953 73.1327 301.302 73.0691 300.711 72.8247C300.12 72.5803 299.615 72.166 299.259 71.6342C298.904 71.1025 298.714 70.4772 298.714 69.8376C298.714 69.198 298.904 68.5727 299.259 68.041C299.615 67.5092 300.12 67.0949 300.711 66.8505C301.302 66.6061 301.953 66.5425 302.58 66.6679C303.207 66.7933 303.783 67.1019 304.235 67.5547C304.836 68.1624 305.173 68.9828 305.173 69.8376C305.173 70.6924 304.836 71.5128 304.235 72.1205Z" fill="#333333"/>
<path d="M328.787 94.2758H255.682V157.469H328.787V94.2758Z" stroke="#333333" stroke-width="1.10311" stroke-linecap="round" stroke-linejoin="round" stroke-dasharray="4.41 4.41"/>
<path d="M424.21 94.2758H340.073V98.7203H424.21V94.2758Z" fill="#333333"/>
<path d="M404.613 103.475H340.073V107.906H404.613V103.475Z" fill="#333333"/>
<path d="M436.17 112.633H340.073V117.118H436.17V112.633Z" fill="#333333"/>
<path d="M421.907 121.562H340.073V126.047H421.907V121.562Z" fill="#333333"/>
<path d="M471.187 273.592H430.042C425.184 273.592 421.247 277.53 421.247 282.387V306.536C421.247 311.393 425.184 315.33 430.042 315.33H471.187C476.044 315.33 479.982 311.393 479.982 306.536V282.387C479.982 277.53 476.044 273.592 471.187 273.592Z" fill="white" stroke="#333333" stroke-width="1.10311" stroke-linecap="round" stroke-linejoin="round"/>
<path d="M440.197 286.145L428.897 293.229L439.389 302.522" stroke="#333333" stroke-width="1.10311" stroke-linecap="round" stroke-linejoin="round"/>
<path d="M460.776 303.195L470.931 294.549L459.214 286.872" stroke="#333333" stroke-width="1.10311" stroke-linecap="round" stroke-linejoin="round"/>
<path d="M445.692 308.529L454.029 282.374" stroke="#333333" stroke-width="1.10311" stroke-linecap="round" stroke-linejoin="round"/>
</svg>
