<svg width="8" height="12" viewBox="0 0 8 12" fill="none" xmlns="http://www.w3.org/2000/svg">
<path d="M4.71018 5.99999L1.17018 9.53999C0.983927 9.72735 0.879386 9.98081 0.879386 10.245C0.879386 10.5092 0.983927 10.7626 1.17018 10.95C1.26314 11.0437 1.37374 11.1181 1.4956 11.1689C1.61746 11.2197 1.74817 11.2458 1.88018 11.2458C2.01219 11.2458 2.1429 11.2197 2.26476 11.1689C2.38661 11.1181 2.49722 11.0437 2.59018 10.95L6.83018 6.70999C6.92391 6.61703 6.9983 6.50643 7.04907 6.38457C7.09984 6.26271 7.12598 6.132 7.12598 5.99999C7.12598 5.86798 7.09984 5.73727 7.04907 5.61541C6.9983 5.49355 6.92391 5.38295 6.83018 5.28999L2.59018 0.999991C2.49674 0.907309 2.38592 0.833985 2.26408 0.78422C2.14225 0.734456 2.01178 0.709229 1.88018 0.70999C1.74857 0.709229 1.61811 0.734456 1.49627 0.78422C1.37443 0.833985 1.26362 0.90731 1.17018 0.999991C0.983927 1.18735 0.879385 1.44081 0.879385 1.70499C0.879385 1.96918 0.983927 2.22263 1.17018 2.40999L4.71018 5.99999Z" fill="#B8C1CC"/>
</svg>
