<svg width="64" height="64" viewBox="0 0 64 64" fill="none" xmlns="http://www.w3.org/2000/svg">
<path d="M48 21.3335C52.4183 21.3335 56 17.7518 56 13.3335C56 8.91522 52.4183 5.3335 48 5.3335C43.5817 5.3335 40 8.91522 40 13.3335C40 17.7518 43.5817 21.3335 48 21.3335Z" stroke="#B6F214" stroke-width="4" stroke-linecap="round" stroke-linejoin="round"/>
<path d="M16 40C20.4183 40 24 36.4183 24 32C24 27.5817 20.4183 24 16 24C11.5817 24 8 27.5817 8 32C8 36.4183 11.5817 40 16 40Z" stroke="#B6F214" stroke-width="4" stroke-linecap="round" stroke-linejoin="round"/>
<path d="M48 58.6665C52.4183 58.6665 56 55.0848 56 50.6665C56 46.2482 52.4183 42.6665 48 42.6665C43.5817 42.6665 40 46.2482 40 50.6665C40 55.0848 43.5817 58.6665 48 58.6665Z" stroke="#B6F214" stroke-width="4" stroke-linecap="round" stroke-linejoin="round"/>
<path d="M22.9067 36.0269L41.1201 46.6402" stroke="#B6F214" stroke-width="4" stroke-linecap="round" stroke-linejoin="round"/>
<path d="M41.0934 17.3599L22.9067 27.9732" stroke="#B6F214" stroke-width="4" stroke-linecap="round" stroke-linejoin="round"/>
</svg>
