<svg width="64" height="64" viewBox="0 0 64 64" fill="none" xmlns="http://www.w3.org/2000/svg">
<path d="M50.6667 10.6665H13.3333C10.3878 10.6665 8 13.0543 8 15.9998V53.3332C8 56.2787 10.3878 58.6665 13.3333 58.6665H50.6667C53.6122 58.6665 56 56.2787 56 53.3332V15.9998C56 13.0543 53.6122 10.6665 50.6667 10.6665Z" stroke="#B6F214" stroke-width="4" stroke-linecap="round" stroke-linejoin="round"/>
<path d="M42.6665 5.3335V16.0002" stroke="#B6F214" stroke-width="4" stroke-linecap="round" stroke-linejoin="round"/>
<path d="M21.3335 5.3335V16.0002" stroke="#B6F214" stroke-width="4" stroke-linecap="round" stroke-linejoin="round"/>
<path d="M8 26.6665H56" stroke="#B6F214" stroke-width="4" stroke-linecap="round" stroke-linejoin="round"/>
<path d="M23.875 41.525C25.2583 41.525 26.5083 41.3583 27.625 41.025C28.7417 40.6917 29.625 40.1917 30.275 39.525C30.9417 38.8583 31.275 38.025 31.275 37.025C31.275 36.125 31.0333 35.3083 30.55 34.575C30.0833 33.8417 29.3917 33.2583 28.475 32.825C27.5583 32.3917 26.4417 32.175 25.125 32.175C23.8917 32.175 22.8083 32.4167 21.875 32.9C20.9417 33.3667 20.2167 34.0167 19.7 34.85C19.2 35.6667 18.95 36.5917 18.95 37.625H22.825C22.825 37.0083 23.0417 36.5083 23.475 36.125C23.9083 35.7417 24.4583 35.55 25.125 35.55C25.575 35.55 25.9417 35.625 26.225 35.775C26.5083 35.9083 26.725 36.1083 26.875 36.375C27.025 36.6417 27.1 36.9417 27.1 37.275C27.1 37.5917 27.025 37.8917 26.875 38.175C26.725 38.4583 26.5 38.7083 26.2 38.925C25.9167 39.1417 25.575 39.3167 25.175 39.45C24.7917 39.5667 24.3583 39.625 23.875 39.625V41.525ZM24.925 50.4C26.3583 50.4 27.5833 50.1833 28.6 49.75C29.6167 49.3 30.4 48.6917 30.95 47.925C31.5 47.1417 31.775 46.2417 31.775 45.225C31.775 44.3417 31.5833 43.5833 31.2 42.95C30.8167 42.3167 30.2667 41.8 29.55 41.4C28.8333 40.9833 27.9917 40.6833 27.025 40.5C26.075 40.3 25.025 40.2 23.875 40.2V42.35C24.5083 42.35 25.0583 42.4083 25.525 42.525C25.9917 42.6417 26.375 42.8167 26.675 43.05C26.9917 43.2667 27.225 43.525 27.375 43.825C27.525 44.125 27.6 44.4583 27.6 44.825C27.6 45.3083 27.4917 45.7167 27.275 46.05C27.0583 46.3833 26.7583 46.625 26.375 46.775C26.0083 46.925 25.575 47 25.075 47C24.6083 47 24.1583 46.9083 23.725 46.725C23.3083 46.5417 22.975 46.2583 22.725 45.875C22.475 45.4917 22.35 45.0167 22.35 44.45H18.2C18.2 45.2167 18.35 45.9583 18.65 46.675C18.9667 47.3917 19.4083 48.0333 19.975 48.6C20.5583 49.1667 21.2667 49.6083 22.1 49.925C22.9333 50.2417 23.875 50.4 24.925 50.4ZM34.2273 37.55L38.5523 36.475V50H42.6273V32.175L34.2273 33.875V37.55Z" fill="#B6F214"/>
</svg>
