<svg width="64" height="64" viewBox="0 0 64 64" fill="none" xmlns="http://www.w3.org/2000/svg">
<path d="M42.6665 10.6665H47.9998C49.4143 10.6665 50.7709 11.2284 51.7711 12.2286C52.7713 13.2288 53.3332 14.5853 53.3332 15.9998V53.3332C53.3332 54.7477 52.7713 56.1042 51.7711 57.1044C50.7709 58.1046 49.4143 58.6665 47.9998 58.6665H15.9998C14.5853 58.6665 13.2288 58.1046 12.2286 57.1044C11.2284 56.1042 10.6665 54.7477 10.6665 53.3332V15.9998C10.6665 14.5853 11.2284 13.2288 12.2286 12.2286C13.2288 11.2284 14.5853 10.6665 15.9998 10.6665H21.3332" stroke="#B6F214" stroke-width="4" stroke-linecap="round" stroke-linejoin="round"/>
<path d="M40.0002 5.3335H24.0002C22.5274 5.3335 21.3335 6.5274 21.3335 8.00016V13.3335C21.3335 14.8063 22.5274 16.0002 24.0002 16.0002H40.0002C41.4729 16.0002 42.6668 14.8063 42.6668 13.3335V8.00016C42.6668 6.5274 41.4729 5.3335 40.0002 5.3335Z" stroke="#B6F214" stroke-width="4" stroke-linecap="round" stroke-linejoin="round"/>
</svg>
