<svg width="64" height="64" viewBox="0 0 64 64" fill="none" xmlns="http://www.w3.org/2000/svg">
<path d="M45.3334 56V50.6667C45.3334 47.8377 44.2096 45.1246 42.2092 43.1242C40.2088 41.1238 37.4957 40 34.6667 40H13.3334C10.5044 40 7.79133 41.1238 5.79094 43.1242C3.79055 45.1246 2.66675 47.8377 2.66675 50.6667V56" stroke="#B6F214" stroke-width="4" stroke-linecap="round" stroke-linejoin="round"/>
<path d="M23.9999 29.3333C29.891 29.3333 34.6666 24.5577 34.6666 18.6667C34.6666 12.7756 29.891 8 23.9999 8C18.1089 8 13.3333 12.7756 13.3333 18.6667C13.3333 24.5577 18.1089 29.3333 23.9999 29.3333Z" stroke="#B6F214" stroke-width="4" stroke-linecap="round" stroke-linejoin="round"/>
<path d="M61.3333 56V50.6667C61.3315 48.3033 60.5449 46.0074 59.0969 44.1395C57.6489 42.2716 55.6216 40.9375 53.3333 40.3467" stroke="#B6F214" stroke-width="4" stroke-linecap="round" stroke-linejoin="round"/>
<path d="M42.6667 8.34668C44.9612 8.93415 46.9948 10.2685 48.4471 12.1395C49.8994 14.0105 50.6877 16.3116 50.6877 18.68C50.6877 21.0485 49.8994 23.3496 48.4471 25.2205C46.9948 27.0915 44.9612 28.4259 42.6667 29.0133" stroke="#B6F214" stroke-width="4" stroke-linecap="round" stroke-linejoin="round"/>
</svg>
