<svg width="64" height="64" viewBox="0 0 64 64" fill="none" xmlns="http://www.w3.org/2000/svg">
<path d="M31.9999 34.6668C33.4727 34.6668 34.6666 33.4729 34.6666 32.0002C34.6666 30.5274 33.4727 29.3335 31.9999 29.3335C30.5272 29.3335 29.3333 30.5274 29.3333 32.0002C29.3333 33.4729 30.5272 34.6668 31.9999 34.6668Z" stroke="#B6F214" stroke-width="4" stroke-linecap="round" stroke-linejoin="round"/>
<path d="M50.6667 34.6668C52.1394 34.6668 53.3333 33.4729 53.3333 32.0002C53.3333 30.5274 52.1394 29.3335 50.6667 29.3335C49.1939 29.3335 48 30.5274 48 32.0002C48 33.4729 49.1939 34.6668 50.6667 34.6668Z" stroke="#B6F214" stroke-width="4" stroke-linecap="round" stroke-linejoin="round"/>
<path d="M13.3334 34.6668C14.8062 34.6668 16.0001 33.4729 16.0001 32.0002C16.0001 30.5274 14.8062 29.3335 13.3334 29.3335C11.8607 29.3335 10.6667 30.5274 10.6667 32.0002C10.6667 33.4729 11.8607 34.6668 13.3334 34.6668Z" stroke="#B6F214" stroke-width="4" stroke-linecap="round" stroke-linejoin="round"/>
</svg>
