<svg width="63" height="64" viewBox="0 0 63 64" fill="none" xmlns="http://www.w3.org/2000/svg">
<path d="M15.75 5.3335L7.875 16.0002V53.3335C7.875 54.748 8.42812 56.1045 9.41269 57.1047C10.3973 58.1049 11.7326 58.6668 13.125 58.6668H49.875C51.2674 58.6668 52.6027 58.1049 53.5873 57.1047C54.5719 56.1045 55.125 54.748 55.125 53.3335V16.0002L47.25 5.3335H15.75Z" stroke="#B6F214" stroke-width="4" stroke-linecap="round" stroke-linejoin="round"/>
<path d="M7.875 16H55.125" stroke="#B6F214" stroke-width="4" stroke-linecap="round" stroke-linejoin="round"/>
<path d="M42 26.6665C42 29.4955 40.8938 32.2086 38.9246 34.209C36.9555 36.2094 34.2848 37.3332 31.5 37.3332C28.7152 37.3332 26.0445 36.2094 24.0754 34.209C22.1062 32.2086 21 29.4955 21 26.6665" stroke="#B6F214" stroke-width="4" stroke-linecap="round" stroke-linejoin="round"/>
</svg>
