<svg width="64" height="64" viewBox="0 0 64 64" fill="none" xmlns="http://www.w3.org/2000/svg">
<path d="M43 11H48.3333C49.7478 11 51.1044 11.5619 52.1046 12.5621C53.1048 13.5623 53.6667 14.9188 53.6667 16.3333V53.6667C53.6667 55.0812 53.1048 56.4377 52.1046 57.4379C51.1044 58.4381 49.7478 59 48.3333 59H16.3333C14.9188 59 13.5623 58.4381 12.5621 57.4379C11.5619 56.4377 11 55.0812 11 53.6667V16.3333C11 14.9188 11.5619 13.5623 12.5621 12.5621C13.5623 11.5619 14.9188 11 16.3333 11H21.6667" stroke="#B6F214" stroke-width="4" stroke-linecap="round" stroke-linejoin="round"/>
<path d="M40.0002 5.3335H24.0002C22.5274 5.3335 21.3335 6.5274 21.3335 8.00016V13.3335C21.3335 14.8063 22.5274 16.0002 24.0002 16.0002H40.0002C41.4729 16.0002 42.6668 14.8063 42.6668 13.3335V8.00016C42.6668 6.5274 41.4729 5.3335 40.0002 5.3335Z" stroke="#B6F214" stroke-width="4" stroke-linecap="round" stroke-linejoin="round"/>
<path d="M19.5835 35.3335H45.0835" stroke="#B6F214" stroke-width="4" stroke-linecap="round" stroke-linejoin="round"/>
<path d="M19.5835 26.8335H45.0835" stroke="#B6F214" stroke-width="4" stroke-linecap="round" stroke-linejoin="round"/>
<path d="M19.5835 43.8335H45.0835" stroke="#B6F214" stroke-width="4" stroke-linecap="round" stroke-linejoin="round"/>
</svg>
