<svg width="21" height="21" viewBox="0 0 21 21" fill="none" xmlns="http://www.w3.org/2000/svg">
<path d="M5.1401 15.1151L2.65239 17.6016C2.53638 17.7217 2.47218 17.8826 2.47363 18.0496C2.47508 18.2166 2.54206 18.3763 2.66015 18.4944C2.77824 18.6125 2.93798 18.6795 3.10497 18.6809C3.27196 18.6824 3.43284 18.6182 3.55296 18.5021L6.04067 16.0144C7.66634 17.4073 9.76828 18.1163 11.9054 17.9927C14.0426 17.8692 16.0488 16.9227 17.5032 15.3518C18.9575 13.781 19.7469 11.7079 19.7057 9.56756C19.6645 7.42723 18.7959 5.38604 17.2822 3.87232C15.7685 2.35859 13.7273 1.49 11.587 1.4488C9.44665 1.4076 7.37355 2.197 5.80269 3.65134C4.23184 5.10569 3.28533 7.11194 3.16179 9.2491C3.03826 11.3863 3.74729 13.4882 5.1401 15.1139V15.1151ZM11.4275 16.7329C9.56947 16.7329 7.7875 15.9947 6.47365 14.6809C5.1598 13.367 4.42169 11.5851 4.42169 9.72701C4.42169 7.86894 5.1598 6.08698 6.47365 4.77312C7.7875 3.45927 9.56947 2.72116 11.4275 2.72116C13.2856 2.72116 15.0676 3.45927 16.3814 4.77312C17.6953 6.08698 18.4334 7.86894 18.4334 9.72701C18.4334 11.5851 17.6953 13.367 16.3814 14.6809C15.0676 15.9947 13.2856 16.7329 11.4275 16.7329Z" fill="#A0A0A0"/>
</svg>
