<svg width="21" height="21" viewBox="0 0 21 21" fill="none" xmlns="http://www.w3.org/2000/svg">
<path d="M8.69796 11.3877H6.82379C6.62319 11.9542 6.22878 12.4315 5.71027 12.7353C5.19176 13.0391 4.58254 13.1499 3.99028 13.048C3.39802 12.946 2.86086 12.638 2.47374 12.1784C2.08662 11.7187 1.87446 11.137 1.87476 10.536C1.87506 9.93504 2.0878 9.35353 2.47538 8.89425C2.86296 8.43497 3.40043 8.1275 3.99279 8.02617C4.58515 7.92484 5.19426 8.03619 5.71247 8.34052C6.23067 8.64486 6.62461 9.12259 6.82464 9.68929H8.69796L11.6396 4.59412H14.3315C14.5316 4.02743 14.9255 3.5497 15.4437 3.24536C15.9619 2.94103 16.571 2.82968 17.1634 2.93101C17.7557 3.03234 18.2932 3.33981 18.6808 3.79909C19.0684 4.25837 19.2811 4.83988 19.2814 5.44084C19.2817 6.04181 19.0695 6.62353 18.6824 7.0832C18.2953 7.54286 17.7581 7.85087 17.1659 7.95279C16.5736 8.05471 15.9644 7.94398 15.4459 7.64016C14.9274 7.33634 14.533 6.85901 14.3324 6.29251H12.6195L10.1688 10.5376L12.6204 14.7844H14.3324C14.5327 14.2179 14.9269 13.7403 15.4452 13.4362C15.9636 13.1322 16.5727 13.0211 17.165 13.1227C17.7574 13.2244 18.2947 13.5321 18.682 13.9916C19.0694 14.4511 19.2818 15.0327 19.2818 15.6336C19.2818 16.2346 19.0694 16.8162 18.682 17.2757C18.2947 17.7352 17.7574 18.0429 17.165 18.1445C16.5727 18.2462 15.9636 18.1351 15.4452 17.831C14.9269 17.527 14.5327 17.0494 14.3324 16.4828H11.6396L8.69796 11.3877ZM16.7347 14.7844C16.5095 14.7844 16.2935 14.8739 16.1343 15.0332C15.975 15.1924 15.8855 15.4084 15.8855 15.6336C15.8855 15.8589 15.975 16.0749 16.1343 16.2341C16.2935 16.3934 16.5095 16.4828 16.7347 16.4828C16.96 16.4828 17.1759 16.3934 17.3352 16.2341C17.4945 16.0749 17.5839 15.8589 17.5839 15.6336C17.5839 15.4084 17.4945 15.1924 17.3352 15.0332C17.1759 14.8739 16.96 14.7844 16.7347 14.7844ZM4.42143 9.68929C4.19621 9.68929 3.98021 9.77875 3.82095 9.93801C3.6617 10.0973 3.57223 10.3133 3.57223 10.5385C3.57223 10.7637 3.6617 10.9797 3.82095 11.1389C3.98021 11.2982 4.19621 11.3877 4.42143 11.3877C4.64665 11.3877 4.86264 11.2982 5.0219 11.1389C5.18115 10.9797 5.27062 10.7637 5.27062 10.5385C5.27062 10.3133 5.18115 10.0973 5.0219 9.93801C4.86264 9.77875 4.64665 9.68929 4.42143 9.68929ZM16.7347 4.59412C16.5095 4.59412 16.2935 4.68359 16.1343 4.84285C15.975 5.0021 15.8855 5.2181 15.8855 5.44332C15.8855 5.66854 15.975 5.88453 16.1343 6.04379C16.2935 6.20304 16.5095 6.29251 16.7347 6.29251C16.96 6.29251 17.1759 6.20304 17.3352 6.04379C17.4945 5.88453 17.5839 5.66854 17.5839 5.44332C17.5839 5.2181 17.4945 5.0021 17.3352 4.84285C17.1759 4.68359 16.96 4.59412 16.7347 4.59412Z" fill="#A0A0A0"/>
</svg>
