<svg width="27" height="27" viewBox="0 0 27 27" fill="none" xmlns="http://www.w3.org/2000/svg">
<path d="M13.5 0C6.04487 0 0 6.04487 0 13.5C0 20.9551 6.04487 27 13.5 27C20.9551 27 27 20.9551 27 13.5C27 6.04487 20.9551 0 13.5 0ZM18.4842 18.6288L16.4953 18.6198L13.5 15.0489L10.5077 18.6167L8.51585 18.6258C8.38326 18.6258 8.27478 18.5203 8.27478 18.3847C8.27478 18.3275 8.29587 18.2732 8.33203 18.228L12.2525 13.5573L8.33203 8.88951C8.29562 8.84534 8.27541 8.79005 8.27478 8.73281C8.27478 8.60022 8.38326 8.49174 8.51585 8.49174L10.5077 8.50078L13.5 12.0717L16.4923 8.5038L18.4811 8.49475C18.6137 8.49475 18.7222 8.60022 18.7222 8.73583C18.7222 8.79308 18.7011 8.84732 18.665 8.89252L14.7506 13.5603L18.668 18.231C18.7041 18.2762 18.7252 18.3305 18.7252 18.3877C18.7252 18.5203 18.6167 18.6288 18.4842 18.6288Z" fill="#FF0000"/>
</svg>
