<svg width="18" height="14" viewBox="0 0 18 14" fill="none" xmlns="http://www.w3.org/2000/svg">
<path d="M17.3337 1.83326C16.7073 2.10501 16.0448 2.28465 15.367 2.3666C16.0821 1.93936 16.6181 1.26725 16.8753 0.474931C16.2033 0.874983 15.4676 1.15684 14.7003 1.30826C14.1874 0.752074 13.5045 0.381844 12.7585 0.25564C12.0125 0.129436 11.2458 0.254396 10.5785 0.610922C9.91119 0.967448 9.3811 1.53537 9.07136 2.22563C8.76162 2.91588 8.68974 3.68942 8.86699 4.42493C7.50818 4.3562 6.17903 4.00239 4.96587 3.38648C3.75272 2.77057 2.6827 1.90634 1.82533 0.84993C1.52461 1.37507 1.36659 1.96978 1.36699 2.57493C1.36593 3.13692 1.50384 3.69044 1.76845 4.18623C2.03307 4.68202 2.41617 5.10469 2.88366 5.4166C2.34031 5.40181 1.80856 5.25601 1.33366 4.9916V5.03326C1.33773 5.82067 1.61365 6.58251 2.11475 7.1899C2.61585 7.7973 3.31137 8.21297 4.08366 8.3666C3.78637 8.45707 3.47772 8.50477 3.16699 8.50826C2.9519 8.50575 2.73734 8.48625 2.52533 8.44993C2.74525 9.12727 3.17084 9.71922 3.74289 10.1434C4.31493 10.5676 5.00497 10.8029 5.71699 10.8166C4.51466 11.7627 3.03023 12.279 1.50033 12.2833C1.22177 12.2842 0.943439 12.2675 0.666992 12.2333C2.22902 13.2418 4.04934 13.7772 5.90866 13.7749C7.19174 13.7883 8.46461 13.5458 9.65292 13.0617C10.8412 12.5775 11.9212 11.8615 12.8297 10.9553C13.7381 10.0492 14.457 8.97109 14.9441 7.78402C15.4313 6.59695 15.677 5.3247 15.667 4.0416C15.667 3.89993 15.667 3.74993 15.667 3.59993C16.3209 3.11227 16.8849 2.51445 17.3337 1.83326Z" fill="#556987"/>
</svg>
